<?xml version="1.0" encoding="UTF-8" standalone="no"?>
<!DOCTYPE svg PUBLIC "-//W3C//DTD SVG 1.1//EN" "http://www.w3.org/Graphics/SVG/1.1/DTD/svg11.dtd">
<svg width="100%" height="100%" viewBox="0 0 2000 2000" version="1.1" xmlns="http://www.w3.org/2000/svg" xmlns:xlink="http://www.w3.org/1999/xlink" xml:space="preserve" xmlns:serif="http://www.serif.com/" style="fill-rule:evenodd;clip-rule:evenodd;stroke-linecap:round;stroke-miterlimit:10;">
    <g id="_14_building-droit" serif:id="14_building droit">
        <g transform="matrix(2.62505,0,0,2.62505,-2419.32,-1251.9)">
            <g transform="matrix(-0.48433,0.874885,0.874885,0.48433,1454.13,730.491)">
                <path d="M-15.189,-8.521C-16.593,-8.953 6.426,-8.521 6.426,-8.521" style="fill:none;stroke:rgb(9,45,59);stroke-width:2.29px;"/>
            </g>
            <g transform="matrix(1,0,0,1,1473.91,773.638)">
                <path d="M0,-40.633C0.291,-37.8 0.764,-3.93 -1.338,-3.516C-3.909,-3.01 -9.164,-3.226 -11.863,0" style="fill:none;stroke:rgb(9,45,59);stroke-width:2.29px;"/>
            </g>
            <g transform="matrix(1,0,0,1,1483.26,766.092)">
                <path d="M0,-38.285C0,-35.037 -0.635,-22.71 -0.86,-12.77C-0.994,-6.878 -0.985,-1.824 -0.614,0C0.875,-0.097 7.55,-3.752 7.652,-3.49" style="fill:none;stroke:rgb(9,45,59);stroke-width:2.29px;"/>
            </g>
            <g transform="matrix(-0.995604,0.0936576,0.0936576,0.995604,1486.75,740.328)">
                <path d="M13.404,-75.763C35.781,-73.249 38.051,-44.704 31.877,-28.671C25.705,-12.638 37.342,1.941 13.404,-6.169C-10.533,-14.279 -17.08,-34.746 -21.745,-56.737C-25.763,-75.679 -8.344,-78.207 13.404,-75.763" style="fill:rgb(9,45,59);fill-rule:nonzero;"/>
            </g>
            <g transform="matrix(0.39613,0,0,0.39613,922.157,461.959)">
                <clipPath id="_clip1">
                    <path d="M1373.67,515.472C1318.03,527.082 1319.07,599.361 1338.38,638.197C1357.68,677.035 1331.88,716.426 1390.12,690.384C1448.37,664.342 1459.99,611.355 1466.51,554.979C1472.13,506.422 1427.76,504.188 1373.67,515.472"/>
                </clipPath>
                <g clip-path="url(#_clip1)">
                    <path d="M1326.39,617.877C1352.37,630.513 1389.1,632.517 1455.74,618L1449.85,638.9C1405.7,662.646 1359.7,668.968 1335,638.9L1326.39,617.877Z" style="fill:white;"/>
                </g>
            </g>
            <g transform="matrix(0.688445,0,0,0.688445,1462.29,712.446)">
                <path d="M0,10.76C2.934,10.76 5.311,8.351 5.311,5.38C5.311,2.408 2.934,0 0,0C-2.933,0 -5.311,2.408 -5.311,5.38C-5.311,8.351 -2.933,10.76 0,10.76" style="fill:rgb(8,44,58);fill-rule:nonzero;"/>
            </g>
            <g transform="matrix(0.688445,0,0,0.688445,1473.35,712.446)">
                <path d="M0,10.76C2.934,10.76 5.311,8.351 5.311,5.38C5.311,2.408 2.934,0 0,0C-2.934,0 -5.311,2.408 -5.311,5.38C-5.311,8.351 -2.934,10.76 0,10.76" style="fill:rgb(8,44,58);fill-rule:nonzero;"/>
            </g>
            <g transform="matrix(0.415507,0.90959,0.90959,-0.415507,1506.22,707.697)">
                <path d="M-6.643,-10.28C-6.643,-10.28 11.28,-18.536 16.024,-10.28" style="fill:none;stroke:rgb(9,45,59);stroke-width:2.29px;"/>
            </g>
        </g>
        <g transform="matrix(1.03986,0,0,1.03986,1.38515,-36.1102)">
            <path d="M1060.88,786L1740.48,611L1739.47,644.094L1060.88,819L1060.88,786Z" style="fill:none;stroke:rgb(90,98,113);stroke-width:9.62px;stroke-linejoin:round;stroke-miterlimit:1.5;"/>
        </g>
        <g transform="matrix(1.03986,0,0,1.03986,811.507,8.08657)">
            <path d="M281.809,826.995L281.809,726" style="fill:none;stroke:rgb(90,98,113);stroke-width:20.2px;stroke-linejoin:round;stroke-miterlimit:1.5;"/>
        </g>
        <g transform="matrix(1.03986,0,0,1.03986,1517.15,-173.792)">
            <path d="M281.809,826.995L281.809,726" style="fill:none;stroke:rgb(90,98,113);stroke-width:20.2px;stroke-linejoin:round;stroke-miterlimit:1.5;"/>
        </g>
        <g transform="matrix(1.03986,0,0,1.03986,1.38515,-160.651)">
            <path d="M1740.48,2077.83C1737.59,2077.83 1740.48,790.967 1740.48,790.967L1031.34,973.109L1031.34,2077.83L1740.48,2077.83Z" style="fill:rgb(86,93,109);"/>
        </g>
        <g transform="matrix(1.03986,0,0,1.03986,1.38515,-160.651)">
            <path d="M1740.48,790.967L1738.48,2077.83L1920,2077.83L1920,903.883L1740.48,790.967Z" style="fill:rgb(85,122,154);"/>
        </g>
        <g transform="matrix(1.03986,0,0,1.03986,22.1824,-67.3061)">
            <path d="M1100.99,931.819L1212.3,909.163L1212.3,1116.46L1100.99,1133.44L1100.99,931.819Z" style="fill:rgb(70,47,92);"/>
        </g>
        <g transform="matrix(1.03986,0,0,1.03986,22.1824,233.742)">
            <path d="M1100.99,884.819L1212.3,872.163L1212.3,1116.46L1100.99,1133.44L1100.99,884.819Z" style="fill:rgb(70,47,92);fill-opacity:0.7;"/>
        </g>
        <g transform="matrix(1.03986,0,0,1.03986,22.1824,547.885)">
            <path d="M1100.99,884.819L1212.3,872.163L1212.3,1116.46L1100.99,1133.44L1100.99,884.819Z" style="fill:rgb(70,47,92);fill-opacity:0.5;"/>
        </g>
        <g transform="matrix(1.03986,0,0,1.03986,22.1824,869.995)">
            <path d="M1100.99,884.819L1212.3,872.163L1212.3,1086.69L1100.99,1086.69L1100.99,884.819Z" style="fill:rgb(70,47,92);fill-opacity:0.5;"/>
        </g>
        <g transform="matrix(-1.03986,0,0,1.03986,3125.32,-127.64)">
            <path d="M1120.99,948.819L1212.3,901.163L1212.3,1106.46L1120.99,1133.44L1120.99,948.819Z" style="fill:rgb(69,46,91);"/>
        </g>
        <g transform="matrix(-1.03986,0,0,1.03986,3125.32,138.36)">
            <path d="M1120.99,923.816L1212.3,901.163L1212.3,1127.62L1120.99,1133.44L1120.99,923.816Z" style="fill:rgb(69,46,91);"/>
        </g>
        <g transform="matrix(1.03986,0,0,1.03986,214.936,-109.605)">
            <path d="M1100.99,931.819L1222.3,905.163L1222.3,1125.46L1100.99,1143.44L1100.99,931.819Z" style="fill:rgb(70,47,92);"/>
        </g>
        <g transform="matrix(1.03986,0,0,1.03986,214.936,191.443)">
            <path d="M1100.99,897.819L1222.3,881.163L1222.3,1125.46L1100.99,1143.44L1100.99,897.819Z" style="fill:rgb(70,47,92);fill-opacity:0.7;"/>
        </g>
        <g transform="matrix(1.03986,0,0,1.03986,214.936,505.587)">
            <path d="M1100.99,897.819L1222.3,881.163L1222.3,1125.46L1100.99,1143.44L1100.99,897.819Z" style="fill:rgb(70,47,92);fill-opacity:0.5;"/>
        </g>
        <g transform="matrix(1.03986,0,0,1.03986,214.936,827.696)">
            <path d="M1100.99,897.819L1222.3,881.163L1222.3,1127.37L1100.99,1127.37L1100.99,897.819Z" style="fill:rgb(70,47,92);fill-opacity:0.5;"/>
        </g>
        <g transform="matrix(1.03986,0,0,1.03986,428.086,-154.443)">
            <path d="M1100.99,931.819L1240.3,900.163L1240.3,1139.46L1100.99,1155.44L1100.99,931.819Z" style="fill:rgb(255,140,125);"/>
        </g>
        <g transform="matrix(1.43389,0,0,1.43389,-562.963,15.1571)">
            <clipPath id="_clip2">
                <path d="M1489.6,557.476L1590.62,534.519L1590.62,708.059L1489.6,719.65L1489.6,557.476Z"/>
            </clipPath>
            <g clip-path="url(#_clip2)">
                <g transform="matrix(-0.958881,0.283807,0.283807,0.958881,1559.32,692.228)">
                    <path d="M5.988,-89.945C31.514,-91.727 48.155,-67.056 45.099,-46.84C42.043,-26.626 34.586,0.098 5.988,-4.386C-22.614,-8.87 -26.592,-32.635 -37.03,-57.576C-46.018,-79.059 -18.823,-88.212 5.988,-89.945" style="fill:rgb(9,45,59);fill-rule:nonzero;"/>
                </g>
                <g transform="matrix(1,0,0,1,1532.88,619.007)">
                    <path d="M0,10.759C2.933,10.759 5.311,8.351 5.311,5.379C5.311,2.408 2.933,0 0,0C-2.934,0 -5.311,2.408 -5.311,5.379C-5.311,8.351 -2.934,10.759 0,10.759" style="fill:white;fill-rule:nonzero;"/>
                </g>
                <g transform="matrix(1,0,0,1,1548.95,619.007)">
                    <path d="M0,10.759C2.933,10.759 5.311,8.351 5.311,5.379C5.311,2.408 2.933,0 0,0C-2.934,0 -5.311,2.408 -5.311,5.379C-5.311,8.351 -2.934,10.759 0,10.759" style="fill:white;fill-rule:nonzero;"/>
                </g>
                <g transform="matrix(1,0,0,1,1527.9,758.038)">
                    <path d="M0,-71.674C0,-71.674 7.979,-5.419 3.469,-2.71C-1.041,0 -11.919,-7.038 -11.919,-7.038" style="fill:none;stroke:rgb(8,44,58);stroke-width:4.18px;"/>
                </g>
                <g transform="matrix(1,0,0,1,1549.92,758.401)">
                    <path d="M0,-74.372C0,-74.372 -5.979,-8.803 -4.938,-4.401C-3.898,0 15.062,-9.401 15.062,-9.401" style="fill:none;stroke:rgb(8,44,58);stroke-width:4.18px;"/>
                </g>
                <g transform="matrix(-0.225154,0.974323,0.974323,0.225154,1537.1,705.407)">
                    <path d="M-36.27,-28.844C-36.27,-28.844 13.994,-18.454 22.939,-28.844" style="fill:none;stroke:rgb(8,44,58);stroke-width:4.18px;"/>
                </g>
                <g transform="matrix(0.0979894,0.995187,0.995187,-0.0979894,1600.47,675.586)">
                    <path d="M-29.448,-26.923C-29.448,-26.923 25.959,-37.999 30.253,-26.923" style="fill:none;stroke:rgb(8,44,58);stroke-width:4.18px;"/>
                </g>
            </g>
        </g>
        <g transform="matrix(1.03986,0,0,1.03986,428.086,146.605)">
            <path d="M1100.99,911.819L1240.3,900.163L1240.3,1139.46L1100.99,1155.44L1100.99,911.819Z" style="fill:rgb(69,46,91);fill-opacity:0.7;"/>
        </g>
        <g transform="matrix(1.03986,0,0,1.03986,428.086,460.748)">
            <path d="M1100.99,911.819L1240.3,900.163L1240.3,1139.46L1100.99,1155.44L1100.99,911.819Z" style="fill:rgb(69,46,91);fill-opacity:0.5;"/>
        </g>
        <g transform="matrix(1.03986,0,0,1.03986,428.086,782.858)">
            <path d="M1100.99,911.819L1240.3,900.163L1240.3,1170.49L1100.99,1170.49L1100.99,911.819Z" style="fill:rgb(69,46,91);fill-opacity:0.5;"/>
        </g>
        <g transform="matrix(1.03986,0,0,1.03986,1.38515,-36.1102)">
            <path d="M1920,715L1740.48,611L1740.48,644.094L1920.98,751" style="fill:none;stroke:rgb(90,98,113);stroke-width:9.62px;stroke-linejoin:round;stroke-miterlimit:1.5;"/>
        </g>
    </g>
</svg>
