<?xml version="1.0" encoding="UTF-8" standalone="no"?>
<!DOCTYPE svg PUBLIC "-//W3C//DTD SVG 1.1//EN" "http://www.w3.org/Graphics/SVG/1.1/DTD/svg11.dtd">
<svg width="100%" height="100%" viewBox="0 0 2000 2000" version="1.1" xmlns="http://www.w3.org/2000/svg" xmlns:xlink="http://www.w3.org/1999/xlink" xml:space="preserve" xmlns:serif="http://www.serif.com/" style="fill-rule:evenodd;clip-rule:evenodd;stroke-linejoin:round;stroke-miterlimit:2;">
    <g id="_15_building-gauche" serif:id="15_building gauche">
        <g transform="matrix(1.98704,0,0,1.03986,-736.852,11.9725)">
            <path d="M519.002,780.755L519.002,1911.82L828.526,1911.82L829.973,863.271L519.002,780.755Z" style="fill:rgb(94,128,160);"/>
        </g>
        <g transform="matrix(0.564626,0,0,1.03986,1.38515,11.9725)">
            <path d="M-2.453,839.431L374.188,796.859L519.002,780.755L519.002,1911.82L-2.453,1911.82L-2.453,839.431Z" style="fill:rgb(86,94,109);"/>
        </g>
        <g transform="matrix(1.03986,0,0,1.03986,20.8163,-46.5088)">
            <path d="M191.802,923L-20.018,955L-20.018,1139.7L191.802,1129.7L191.802,923Z" style="fill:rgb(64,41,86);"/>
        </g>
        <g transform="matrix(-1.09183,0,0,0.877321,1704.86,116.609)">
            <path d="M1100.99,919.966L1240.3,900.163L1240.3,1151.32L1100.99,1155.44L1100.99,919.966Z" style="fill:rgb(71,48,92);"/>
        </g>
        <g transform="matrix(-1.09183,0,0,0.877321,1704.86,374.835)">
            <path d="M1100.99,903.373L1240.3,900.163L1240.3,1151.32L1100.99,1155.44L1100.99,903.373Z" style="fill:rgb(71,48,92);fill-opacity:0.7;"/>
        </g>
        <g transform="matrix(-1.09183,0,0,0.877321,1704.86,639.326)">
            <path d="M1100.99,903.373L1240.3,900.163L1240.3,1151.32L1100.99,1155.44L1100.99,903.373Z" style="fill:rgb(71,48,92);fill-opacity:0.5;"/>
        </g>
        <g transform="matrix(-1.09183,0,0,0.877321,1704.86,915.742)">
            <path d="M1100.99,903.373L1240.3,900.163L1240.3,1235.87L1100.99,1235.87L1100.99,903.373Z" style="fill:rgb(71,48,92);fill-opacity:0.5;"/>
        </g>
        <g transform="matrix(-1.09183,0,0,0.877321,1893.26,141.07)">
            <path d="M1100.99,919.966L1218.43,900.163L1218.43,1129.93L1100.99,1134.06L1100.99,919.966Z" style="fill:rgb(71,48,92);"/>
        </g>
        <g transform="matrix(-1.09183,0,0,0.877321,1893.26,399.296)">
            <path d="M1100.99,883.223L1218.43,877.643L1218.43,1129.93L1100.99,1134.06L1100.99,883.223Z" style="fill:rgb(71,48,92);fill-opacity:0.7;"/>
        </g>
        <g transform="matrix(-1.09183,0,0,0.877321,1893.26,663.787)">
            <path d="M1100.99,883.223L1218.43,877.643L1218.43,1129.93L1100.99,1134.06L1100.99,883.223Z" style="fill:rgb(71,48,92);fill-opacity:0.5;"/>
        </g>
        <g transform="matrix(-1.09183,0,0,0.877321,1893.26,940.203)">
            <path d="M1100.99,883.223L1218.43,877.643L1218.43,1207.99L1100.99,1207.99L1100.99,883.223Z" style="fill:rgb(71,48,92);fill-opacity:0.5;"/>
        </g>
        <g transform="matrix(-1.09183,0,0,0.877321,2068.77,163.289)">
            <path d="M1100.99,919.966L1211.76,900.163L1211.76,1110.53L1100.99,1114.66L1100.99,919.966Z" style="fill:rgb(71,48,92);"/>
        </g>
        <g transform="matrix(-1.09183,0,0,0.877321,2068.77,421.515)">
            <path d="M1100.99,865.444L1211.76,861.049L1211.76,1110.53L1100.99,1114.66L1100.99,865.444Z" style="fill:rgb(71,48,92);fill-opacity:0.7;"/>
        </g>
        <g transform="matrix(-1.09183,0,0,0.877321,2068.77,686.006)">
            <path d="M1100.99,865.444L1211.76,861.049L1211.76,1110.53L1100.99,1114.66L1100.99,865.444Z" style="fill:rgb(71,48,92);fill-opacity:0.5;"/>
        </g>
        <g transform="matrix(-1.09183,0,0,0.877321,2068.77,962.422)">
            <path d="M1100.99,865.444L1211.76,861.049L1211.76,1182.67L1100.99,1182.67L1100.99,865.444Z" style="fill:rgb(71,48,92);fill-opacity:0.5;"/>
        </g>
    </g>
</svg>
