<?xml version="1.0" encoding="UTF-8" standalone="no"?>
<!DOCTYPE svg PUBLIC "-//W3C//DTD SVG 1.1//EN" "http://www.w3.org/Graphics/SVG/1.1/DTD/svg11.dtd">
<svg width="100%" height="100%" viewBox="0 0 2000 2000" version="1.1" xmlns="http://www.w3.org/2000/svg" xmlns:xlink="http://www.w3.org/1999/xlink" xml:space="preserve" xmlns:serif="http://www.serif.com/" style="fill-rule:evenodd;clip-rule:evenodd;stroke-linejoin:round;stroke-miterlimit:2;">
    <g id="_16_arbres-droits" serif:id="16_arbres droits">
        <g transform="matrix(1.03986,0,0,1.03986,1.38515,-36.1102)">
            <path d="M1920.14,1569.12C1875.3,1606.24 1813.44,1599.67 1813.44,1599.67C1782.09,1600.76 1771.14,1557.95 1771.14,1557.95C1759.94,1543.14 1786.57,1493.8 1786.57,1493.8L1741.83,1534.75C1718.52,1520.38 1720.87,1501.47 1720.87,1501.47C1733.24,1498.48 1759.11,1451.16 1759.11,1451.16C1738.39,1440.11 1702.94,1477.13 1702.94,1477.13C1680.85,1448.96 1697.75,1338.47 1697.75,1338.47C1732.05,1339.82 1774.5,1353.33 1774.5,1353.33C1755.36,1324.64 1700.75,1296.21 1700.75,1296.21C1700.85,1255.23 1783.24,1127.09 1831.83,1131.93C1880.11,1136.73 1906.56,1171.87 1920.14,1199.95L1920.14,1242.38C1884.93,1264.36 1869.26,1304.72 1869.26,1304.72C1875.54,1292.35 1900.22,1280.51 1920.14,1272.65L1920.14,1440.41C1897.85,1447.02 1884.19,1457.48 1884.19,1457.48C1896.39,1459.1 1908.83,1462.17 1920.14,1465.6L1920.14,1569.12Z" style="fill:url(#_Linear1);"/>
        </g>
        <g transform="matrix(-0.756483,-1.28956e-16,1.40869e-16,-0.712461,3366.38,2474.03)">
            <path d="M2152,1041.7C2095.92,1038.45 2008.74,1219.12 2011,1275.09C2011,1275.09 2075.36,1310.14 2099,1348C2099,1348 2049.47,1332.48 2010,1333C2010,1333 1985.08,1485.05 2012.08,1522C2012.08,1522 2062.56,1469 2087,1482.66C2087,1482.66 2036.18,1536.4 2022.15,1541.34C2022.15,1541.34 2022.68,1605.31 2050.28,1623.32L2121,1539C2121,1539 2054.45,1646.19 2068.17,1665.64C2068.17,1665.64 2098.06,1810.28 2168.73,1806.03C2239.41,1801.77 2312.62,1691.89 2324,1511C2324,1511 2275.69,1487.02 2231,1482.66C2231,1482.66 2266.22,1447.1 2319,1447C2319,1447 2317.99,1309.13 2299.16,1254.78C2299.16,1254.78 2221.48,1331.55 2210.17,1361.77C2210.17,1361.77 2248.24,1230.8 2297.85,1201.79C2297.85,1201.79 2246.62,1047.19 2152,1041.7Z" style="fill:url(#_Linear2);"/>
        </g>
    </g>
    <defs>
        <linearGradient id="_Linear1" x1="0" y1="0" x2="1" y2="0" gradientUnits="userSpaceOnUse" gradientTransform="matrix(32.7584,289.347,-289.347,32.7584,1829.24,1149)"><stop offset="0" style="stop-color:rgb(103,135,71);stop-opacity:1"/><stop offset="1" style="stop-color:rgb(161,172,56);stop-opacity:1"/></linearGradient>
        <linearGradient id="_Linear2" x1="0" y1="0" x2="1" y2="0" gradientUnits="userSpaceOnUse" gradientTransform="matrix(-38.7803,-654.928,616.816,-41.1765,2161.76,1723.6)"><stop offset="0" style="stop-color:rgb(83,158,124);stop-opacity:1"/><stop offset="1" style="stop-color:rgb(0,88,52);stop-opacity:1"/></linearGradient>
    </defs>
</svg>
