<?xml version="1.0" encoding="UTF-8" standalone="no"?>
<!DOCTYPE svg PUBLIC "-//W3C//DTD SVG 1.1//EN" "http://www.w3.org/Graphics/SVG/1.1/DTD/svg11.dtd">
<svg width="100%" height="100%" viewBox="0 0 2000 2000" version="1.1" xmlns="http://www.w3.org/2000/svg" xmlns:xlink="http://www.w3.org/1999/xlink" xml:space="preserve" xmlns:serif="http://www.serif.com/" style="fill-rule:evenodd;clip-rule:evenodd;stroke-linejoin:round;stroke-miterlimit:2;">
    <g id="_17_arbre-gauche" serif:id="17_arbre gauche">
        <g transform="matrix(1.03986,0,0,1.03986,0,-56.9074)">
            <path d="M76.515,1207.44C75.283,1190.18 72.823,1139.16 85.104,1121.7C85.104,1121.7 217.911,1132.34 189.081,1287.45C189.081,1287.45 218.224,1192.6 278.437,1187.25C278.437,1187.25 227.557,1333.94 252.442,1355.46C277.328,1376.98 312.622,1246.62 311.742,1213.23C311.742,1213.23 403.112,1299.92 378.352,1391.96C378.352,1391.96 298.779,1399.67 297.932,1433.44C297.086,1467.21 359.373,1463.49 378.352,1438.41C378.352,1438.41 398.568,1507.86 359.669,1552.88C320.77,1597.91 185.689,1649.76 87.541,1617.73C52.617,1606.34 23.236,1591.57 0,1573.68L0,1449.68C17.359,1459.88 35.323,1468.66 48.549,1470.77C75.267,1475.02 42.122,1409.58 0,1375.43L0,1164.68C7.888,1161.19 16.977,1159.13 27.429,1158.88C27.429,1158.88 71.339,1168 76.515,1207.44C76.775,1211.09 76.981,1213.23 76.981,1213.23C76.918,1211.23 76.76,1209.3 76.515,1207.44Z" style="fill:url(#_Linear1);"/>
        </g>
        <path d="M12.86,2000C8.423,1997.05 4.165,1994 0.088,1990.86L0.088,1861.92C0.14,1860.53 0.088,1819.85 0.088,1819.85C0.088,1819.85 -0.11,1785.22 0.088,1784.72L0.088,1565.57C8.29,1561.93 17.742,1559.79 28.611,1559.53C28.611,1559.53 74.271,1569.02 79.654,1610.03C79.924,1613.82 80.138,1616.05 80.138,1616.05C80.072,1613.97 79.908,1611.96 79.654,1610.03C78.373,1592.08 75.814,1539.02 88.585,1520.87C88.585,1520.87 226.685,1531.93 196.706,1693.22C196.706,1693.22 227.011,1594.6 289.624,1589.04C289.624,1589.04 236.716,1741.57 262.593,1763.95C288.47,1786.33 325.172,1650.77 324.257,1616.05C324.257,1616.05 419.269,1706.19 393.522,1801.9C393.522,1801.9 310.777,1809.92 309.897,1845.03C309.016,1880.15 373.787,1876.28 393.522,1850.21C393.522,1850.21 414.543,1922.42 374.094,1969.24C365.244,1979.49 351.605,1990.07 334.64,2000L12.86,2000Z" style="fill:url(#_Linear2);"/>
        <g transform="matrix(-1.03986,0,0,1.03986,512.56,262.643)">
            <path d="M76.515,1207.44C75.283,1190.18 72.823,1139.16 85.104,1121.7C85.104,1121.7 217.911,1132.34 189.081,1287.45C189.081,1287.45 218.224,1192.6 278.437,1187.25C278.437,1187.25 227.557,1333.94 252.442,1355.46C277.328,1376.98 312.622,1246.62 311.742,1213.23C311.742,1213.23 403.112,1299.92 378.352,1391.96C378.352,1391.96 298.779,1399.67 297.932,1433.44C297.086,1467.21 359.373,1463.49 378.352,1438.41C378.352,1438.41 398.568,1507.86 359.669,1552.88C320.77,1597.91 185.689,1649.76 87.541,1617.73C52.617,1606.34 -10.356,1552.14 -33.593,1534.25C-81.554,1476.81 -77.161,1408.81 -61.37,1395.86C-50.902,1387.28 -44.439,1423.56 0,1449.68C17.359,1459.88 35.323,1468.66 48.549,1470.77C75.267,1475.02 -110.783,1311.49 -50.968,1267.73C-50.968,1267.73 -17.677,1255.35 -18.272,1197.38C-18.866,1139.42 16.977,1159.13 27.429,1158.88C27.429,1158.88 71.339,1168 76.515,1207.44C76.775,1211.09 76.981,1213.23 76.981,1213.23C76.918,1211.23 76.76,1209.3 76.515,1207.44Z" style="fill:url(#_Linear3);"/>
        </g>
    </g>
    <defs>
        <linearGradient id="_Linear1" x1="0" y1="0" x2="1" y2="0" gradientUnits="userSpaceOnUse" gradientTransform="matrix(171.802,341,-341,171.802,40,1253)"><stop offset="0" style="stop-color:rgb(0,135,124);stop-opacity:1"/><stop offset="1" style="stop-color:rgb(195,178,119);stop-opacity:1"/></linearGradient>
        <linearGradient id="_Linear2" x1="0" y1="0" x2="1" y2="0" gradientUnits="userSpaceOnUse" gradientTransform="matrix(57,369,-369,57,59,1631)"><stop offset="0" style="stop-color:rgb(0,135,124);stop-opacity:1"/><stop offset="1" style="stop-color:rgb(195,178,119);stop-opacity:1"/></linearGradient>
        <linearGradient id="_Linear3" x1="0" y1="0" x2="1" y2="0" gradientUnits="userSpaceOnUse" gradientTransform="matrix(171.802,341,-341,171.802,40,1253)"><stop offset="0" style="stop-color:rgb(0,135,124);stop-opacity:1"/><stop offset="1" style="stop-color:rgb(195,178,119);stop-opacity:1"/></linearGradient>
    </defs>
</svg>
