<?xml version="1.0" encoding="UTF-8" standalone="no"?>
<!DOCTYPE svg PUBLIC "-//W3C//DTD SVG 1.1//EN" "http://www.w3.org/Graphics/SVG/1.1/DTD/svg11.dtd">
<svg width="100%" height="100%" viewBox="0 0 2000 2000" version="1.1" xmlns="http://www.w3.org/2000/svg" xmlns:xlink="http://www.w3.org/1999/xlink" xml:space="preserve" xmlns:serif="http://www.serif.com/" style="fill-rule:evenodd;clip-rule:evenodd;stroke-linejoin:round;stroke-miterlimit:2;">
    <g id="_2_nuage-droit" serif:id="2_nuage droit" transform="matrix(0.660721,0,0,0.660721,731.428,14.365)">
        <g transform="matrix(1,0,0,1,1919.98,458.345)">
            <path d="M0,-348.387C-11.32,-364.546 -31.757,-375.335 -55.091,-375.335C-79.56,-375.335 -100.845,-363.472 -111.77,-345.993C-127.729,-365.605 -152.146,-378.152 -179.518,-378.152C-227.597,-378.152 -266.572,-339.457 -266.572,-291.725C-266.572,-253.154 -241.119,-220.489 -205.98,-209.37C-220.157,-200.762 -228.884,-189.042 -228.884,-176.123C-228.884,-164.811 -222.18,-154.422 -210.996,-146.233C-211.597,-142.133 -211.913,-137.942 -211.913,-133.677C-211.913,-95.106 -186.461,-62.441 -151.322,-51.321C-165.499,-42.714 -174.225,-30.993 -174.225,-18.075C-174.225,8.346 -137.736,29.765 -92.726,29.765C-54.891,29.765 -23.08,14.63 -13.898,-5.887C-9.493,-3.924 -4.842,-2.304 0,-1.059L0,-348.387Z" style="fill:rgb(225,123,178);fill-rule:nonzero;"/>
        </g>
        <g transform="matrix(1,0,0,1,1776.72,142.203)">
            <path d="M0,-88.184C14.648,-88.184 27.8,-84.174 36.82,-77.811C36.395,-79.851 36.171,-81.954 36.171,-84.105C36.171,-102.868 53.075,-118.078 73.928,-118.078C88.256,-118.078 100.72,-110.897 107.117,-100.317C115.771,-111.31 128.676,-118.623 143.266,-119.647L143.266,29.935C138.463,30.921 133.323,31.463 127.972,31.463C105.816,31.463 87.19,22.302 81.813,9.883C75.329,12.872 67.947,14.565 60.114,14.565C34.301,14.565 13.375,-3.799 13.375,-26.452C13.375,-26.838 13.382,-27.224 13.395,-27.608C9.136,-26.855 4.644,-26.452 0,-26.452C-27.196,-26.452 -49.243,-40.271 -49.243,-57.318C-49.243,-74.365 -27.196,-88.184 0,-88.184" style="fill:rgb(155,104,183);fill-rule:nonzero;"/>
        </g>
        <g transform="matrix(1,0,0,1,1918.98,271)">
            <path d="M0,24.519C-1.466,23.888 -3.144,23.299 -5.014,22.761C-3.294,22.503 -1.621,22.196 0,21.845L0,-15.769C-5.602,-16.981 -11.831,-17.663 -18.402,-17.663C-32.251,-17.663 -44.604,-14.658 -52.678,-9.96C-58.205,-14.147 -68.975,-16.988 -81.354,-16.988C-99.37,-16.988 -113.976,-10.97 -113.976,-3.546C-113.976,-2.695 -113.782,-1.863 -113.415,-1.056C-121.208,-3.573 -132.571,-5.16 -145.228,-5.16C-168.725,-5.16 -187.773,0.308 -187.773,7.053C-187.773,13.798 -168.725,19.266 -145.228,19.266C-141.216,19.266 -137.334,19.106 -133.654,18.809C-133.665,18.96 -133.671,19.113 -133.671,19.266C-133.671,28.229 -115.592,35.495 -93.288,35.495C-86.521,35.495 -80.144,34.825 -74.541,33.643C-69.896,38.557 -53.802,42.182 -34.659,42.182C-20.116,42.182 -7.341,40.087 0,36.927L0,24.519Z" style="fill:rgb(254,118,134);fill-rule:nonzero;"/>
        </g>
    </g>
</svg>
