<?xml version="1.0" encoding="UTF-8" standalone="no"?>
<!DOCTYPE svg PUBLIC "-//W3C//DTD SVG 1.1//EN" "http://www.w3.org/Graphics/SVG/1.1/DTD/svg11.dtd">
<svg width="100%" height="100%" viewBox="0 0 2000 2000" version="1.1" xmlns="http://www.w3.org/2000/svg" xmlns:xlink="http://www.w3.org/1999/xlink" xml:space="preserve" xmlns:serif="http://www.serif.com/" style="fill-rule:evenodd;clip-rule:evenodd;stroke-linejoin:round;stroke-miterlimit:2;">
    <g id="_3_nuage-gauche" serif:id="3_nuage gauche" transform="matrix(0.444906,0,0,0.523723,0.00834218,-71.8075)">
        <g transform="matrix(1,0,0,1,506.029,561.23)">
            <path d="M0,-225.303C-37.481,-225.303 -71.134,-215.041 -94.216,-198.76C-93.129,-203.98 -92.554,-209.362 -92.554,-214.865C-92.554,-262.876 -135.811,-301.797 -189.17,-301.797C-225.833,-301.797 -257.726,-283.422 -274.095,-256.35C-298.007,-286.726 -334.593,-306.159 -375.608,-306.159C-447.647,-306.159 -506.047,-246.226 -506.047,-172.295C-506.047,-112.553 -467.909,-61.959 -415.259,-44.736C-436.501,-31.404 -449.576,-13.25 -449.576,6.759C-449.576,47.681 -394.903,80.856 -327.46,80.856C-270.769,80.856 -223.105,57.415 -209.348,25.635C-192.754,33.283 -173.866,37.616 -153.822,37.616C-87.77,37.616 -34.224,-9.374 -34.224,-67.34C-34.224,-68.329 -34.243,-69.315 -34.274,-70.298C-23.376,-68.371 -11.881,-67.34 0,-67.34C69.591,-67.34 126.006,-102.701 126.006,-146.321C126.006,-189.942 69.591,-225.303 0,-225.303" style="fill:rgb(226,127,178);fill-rule:nonzero;"/>
        </g>
        <g transform="matrix(1,0,0,1,143.247,299.162)">
            <path d="M0,-88.184C-14.648,-88.184 -27.799,-84.174 -36.82,-77.811C-36.395,-79.851 -36.17,-81.954 -36.17,-84.105C-36.17,-102.868 -53.075,-118.078 -73.928,-118.078C-88.256,-118.078 -100.72,-110.897 -107.117,-100.317C-115.771,-111.31 -128.675,-118.623 -143.266,-119.647L-143.266,29.935C-138.462,30.921 -133.323,31.463 -127.972,31.463C-105.817,31.463 -87.19,22.302 -81.813,9.883C-75.329,12.872 -67.947,14.565 -60.114,14.565C-34.301,14.565 -13.375,-3.799 -13.375,-26.452C-13.375,-26.838 -13.382,-27.224 -13.395,-27.608C-9.136,-26.855 -4.643,-26.452 0,-26.452C27.196,-26.452 49.243,-40.271 49.243,-57.318C49.243,-74.365 27.196,-88.184 0,-88.184" style="fill:rgb(157,106,185);fill-rule:nonzero;"/>
        </g>
    </g>
</svg>
