<?xml version="1.0" encoding="UTF-8" standalone="no"?>
<!DOCTYPE svg PUBLIC "-//W3C//DTD SVG 1.1//EN" "http://www.w3.org/Graphics/SVG/1.1/DTD/svg11.dtd">
<svg width="100%" height="100%" viewBox="0 0 2000 2000" version="1.1" xmlns="http://www.w3.org/2000/svg" xmlns:xlink="http://www.w3.org/1999/xlink" xml:space="preserve" xmlns:serif="http://www.serif.com/" style="fill-rule:evenodd;clip-rule:evenodd;stroke-linejoin:round;stroke-miterlimit:2;">
    <g id="_7_montagne-4-lodopolis" serif:id="7_montagne 4 lodopolis">
        <g transform="matrix(1.03986,0,0,1.03986,599.305,845.753)">
            <path d="M-575,146.389C-575,146.389 -11.084,-395.409 367,-396.058C829.269,-396.851 1345.14,734.605 1345.14,734.605L1347,1110L-575,1110L-575,146.389Z" style="fill:rgb(189,181,133);fill-rule:nonzero;"/>
        </g>
        <g transform="matrix(0.79339,0,0,0.79339,237.573,76.5749)">
            <g transform="matrix(1,0,0,1,1012.75,327.375)">
                <path d="M0,42.635L0,14.057C0,13.233 -0.525,12.497 -1.311,12.237L-5.076,10.971C-5.663,10.769 -6.311,10.869 -6.817,11.231C-7.319,11.593 -7.616,12.176 -7.616,12.795L-7.616,41.372C-7.616,42.197 -7.087,42.932 -6.302,43.197L-2.536,44.46C-2.339,44.529 -2.13,44.56 -1.925,44.56C-1.527,44.56 -1.129,44.44 -0.8,44.198C-0.293,43.837 0,43.254 0,42.635M-11.642,-27.496C-11.642,-28.324 -12.171,-29.06 -12.951,-29.322L-16.719,-30.592C-17.316,-30.792 -17.953,-30.696 -18.462,-30.334C-18.965,-29.973 -19.263,-29.39 -19.263,-28.77L-19.263,-0.189C-19.263,0.639 -18.736,1.371 -17.948,1.636L-14.182,2.902C-13.985,2.97 -13.775,3.007 -13.567,3.007C-13.168,3.007 -12.774,2.883 -12.445,2.645C-11.938,2.283 -11.642,1.7 -11.642,1.081L-11.642,-27.496ZM-12.951,8.305L-16.719,7.034C-17.316,6.834 -17.953,6.934 -18.462,7.296C-18.965,7.658 -19.263,8.241 -19.263,8.86L-19.263,37.438C-19.263,38.266 -18.736,39.001 -17.948,39.266L-14.182,40.533C-13.985,40.6 -13.775,40.633 -13.567,40.633C-13.168,40.633 -12.774,40.509 -12.445,40.275C-11.938,39.913 -11.642,39.33 -11.642,38.708L-11.642,10.13C-11.642,9.302 -12.171,8.57 -12.951,8.305M-87.947,-20.506L-94.415,-20.506L-94.415,-17.668L-87.947,-20.208L-87.947,-20.506ZM-55.57,-21.382L-65.89,-17.33C-67.73,-16.623 -69.717,-16.879 -71.264,-17.945C-72.833,-19.011 -73.78,-20.799 -73.78,-22.713L-73.78,-35.713L-80.241,-33.177L-80.241,-18.894C-80.241,-16.506 -81.684,-14.391 -83.911,-13.515L-94.23,-9.467C-96.078,-8.756 -98.052,-9.017 -99.604,-10.082C-101.171,-11.143 -102.12,-12.932 -102.12,-14.846L-102.12,-24.577L-109.356,-21.731L-109.356,127.194L-117.063,127.567L-117.063,-24.361C-117.063,-25.944 -116.094,-27.363 -114.622,-27.946L-99.677,-33.819C-98.499,-34.29 -97.153,-34.136 -96.095,-33.414C-95.042,-32.698 -94.415,-31.509 -94.415,-30.234L-94.415,-28.212L-87.947,-28.212L-87.947,-35.802C-87.947,-37.386 -86.974,-38.808 -85.498,-39.387L-79.779,-41.638L-79.779,-85.761C-79.779,-86.431 -79.428,-87.059 -78.854,-87.405C-78.283,-87.759 -77.567,-87.783 -76.968,-87.473C-72.233,-85.026 -66.388,-86.054 -60.29,-87.625C-56.756,-88.535 -53.11,-89.475 -49.393,-89.475C-46.28,-89.475 -43.499,-88.816 -40.881,-87.473C-40.242,-87.139 -39.837,-86.48 -39.837,-85.761L-39.837,-63.604C-39.837,-62.932 -40.19,-62.308 -40.766,-61.959C-41.336,-61.61 -42.051,-61.585 -42.65,-61.89C-47.378,-64.326 -53.23,-63.31 -59.329,-61.734C-62.858,-60.826 -66.505,-59.885 -70.228,-59.885C-70.859,-59.885 -71.464,-59.929 -72.072,-59.981L-72.072,-44.661L-71.336,-44.954C-70.143,-45.421 -68.813,-45.264 -67.754,-44.549C-66.702,-43.833 -66.074,-42.643 -66.074,-41.369L-66.074,-28.212L-59.807,-28.212C-59.735,-28.212 -59.679,-28.176 -59.606,-28.172L-59.606,-46.928C-59.606,-48.516 -58.638,-49.936 -57.167,-50.513L-41.473,-56.681C-40.612,-57.018 -39.668,-57.038 -38.804,-56.741L10.034,-39.898C11.587,-39.363 12.627,-37.9 12.627,-36.255L12.627,132.11L4.925,131.153L4.925,-33.511L-35.986,-47.616L-35.986,127.712L-43.692,127.322L-43.692,-47.532L-51.905,-44.304L-51.905,-26.761C-51.905,-24.369 -53.344,-22.255 -55.57,-21.382M-28.364,-34.523C-28.958,-34.719 -29.598,-34.623 -30.104,-34.262C-30.611,-33.9 -30.908,-33.317 -30.908,-32.698L-30.908,-4.121C-30.908,-3.293 -30.383,-2.561 -29.594,-2.296L-25.828,-1.03C-25.626,-0.961 -25.421,-0.929 -25.212,-0.929C-24.814,-0.929 -24.42,-1.05 -24.09,-1.286C-23.585,-1.648 -23.286,-2.231 -23.286,-2.851L-23.286,-31.428C-23.286,-32.252 -23.813,-32.987 -24.597,-33.249L-28.364,-34.523ZM-5.076,-26.656C-5.663,-26.858 -6.311,-26.761 -6.817,-26.399C-7.319,-26.033 -7.616,-25.454 -7.616,-24.836L-7.616,3.742C-7.616,4.571 -7.087,5.302 -6.302,5.568L-2.536,6.834C-2.339,6.897 -2.13,6.934 -1.925,6.934C-1.527,6.934 -1.129,6.81 -0.8,6.572C-0.293,6.206 0,5.627 0,5.005L0,-23.569C0,-24.397 -0.525,-25.133 -1.311,-25.394L-5.076,-26.656ZM-68.176,106.942C-68.176,102.402 -71.854,98.725 -76.394,98.725C-80.932,98.725 -84.61,102.402 -84.61,106.942L-84.61,126.542L-68.176,126.542L-68.176,106.942ZM-25.828,36.601L-29.594,35.334C-30.383,35.069 -30.908,34.333 -30.908,33.505L-30.908,4.932C-30.908,4.309 -30.611,3.726 -30.104,3.364C-29.598,3.007 -28.958,2.906 -28.364,3.107L-24.597,4.378C-23.813,4.643 -23.286,5.374 -23.286,6.203L-23.286,34.776C-23.286,35.399 -23.585,35.982 -24.09,36.34C-24.42,36.576 -24.814,36.701 -25.212,36.701C-25.421,36.701 -25.626,36.665 -25.828,36.601"/>
            </g>
            <g transform="matrix(1,0,0,1,889.812,519.379)">
                <path d="M0,-43.835C1.576,-29.605 2.36,-22.489 3.933,-8.25C2.633,-8.081 1.987,-7.997 0.688,-7.821C-0.573,-7.652 -1.278,-8.439 -1.418,-9.617C-3.009,-23.144 -3.807,-29.91 -5.402,-43.44C-8.421,-43.204 -9.931,-43.079 -12.948,-42.809C-11.092,-28.301 -10.166,-21.05 -8.309,-6.542C-7.682,-1.649 -5.143,0.485 -0.317,-0.243C4.523,-0.975 6.946,-1.32 11.797,-1.959C10.376,-16.077 8.972,-30.203 7.554,-44.32C4.531,-44.144 3.019,-44.047 0,-43.835" style="fill:white;"/>
            </g>
            <g transform="matrix(1,0,0,1,917.244,482.154)">
                <path d="M0,26.349C-1.081,26.45 -1.621,26.498 -2.701,26.607C-3.579,15.656 -4.02,10.181 -4.9,-0.769C-3.774,-0.825 -3.209,-0.849 -2.084,-0.901C-0.417,-0.974 0.382,-0.299 0.511,1.47C1.163,10.346 1.488,14.784 2.135,23.664C2.247,25.196 1.488,26.212 0,26.349M9.493,25.537C8.82,14.832 8.486,9.486 7.813,-1.219C7.533,-5.705 4.47,-8.109 -0.235,-7.968C-5.352,-7.816 -7.908,-7.715 -13.02,-7.467C-11.498,9.3 -10.737,17.685 -9.213,34.458C-4.403,33.871 -1.994,33.601 2.829,33.102C6.975,32.681 9.76,29.79 9.493,25.537" style="fill:white;"/>
            </g>
            <g transform="matrix(1,0,0,1,867.181,487.059)">
                <path d="M0,28.081C-2.195,13.284 -3.293,5.888 -5.486,-8.905C-8.501,-8.572 -10.006,-8.396 -13.021,-8.025C-10.645,6.977 -8.27,21.983 -5.89,36.986C0.015,35.824 2.969,35.277 8.899,34.252C8.771,31.213 8.708,29.693 8.586,26.658C5.149,27.209 3.428,27.49 0,28.081" style="fill:white;"/>
            </g>
            <g transform="matrix(0.94501,0.32704,0.32704,-0.94501,1028.4,510.95)">
                <path d="M5.523,-0.897C8.29,-0.165 9.672,0.199 12.447,0.904C9.675,13.466 8.293,19.744 5.523,32.307C2.549,31.777 1.062,31.503 -1.903,30.938C1.065,18.203 2.554,11.835 5.523,-0.897" style="fill:white;"/>
            </g>
            <g transform="matrix(1,0,0,1,1021.57,512.279)">
                <path d="M0,-33.181C-2.995,-33.551 -4.493,-33.727 -7.498,-34.065C-8.429,-20.393 -8.893,-13.56 -9.821,0.111C-3.806,0.349 -0.8,0.502 5.215,0.884C5.711,-1.339 5.956,-2.449 6.459,-4.663C2.983,-4.933 1.247,-5.054 -2.229,-5.275C-1.338,-16.438 -0.896,-22.022 0,-33.181" style="fill:white;"/>
            </g>
            <g transform="matrix(1,0,0,1,1059.81,509.818)">
                <path d="M0,-19.606C2.77,-19.135 4.157,-18.89 6.918,-18.388C6.993,-20.473 7.024,-21.515 7.095,-23.613C3.855,-24.237 2.229,-24.542 -1.021,-25.125C-6.054,-26.029 -9.302,-23.983 -9.666,-21.142C-9.826,-19.875 -9.76,-18.568 -9.147,-17.057C-6.564,-10.653 -5.318,-7.498 -2.876,-1.303C-2.34,0.068 -3.037,0.646 -4.639,0.455C-7.883,0.072 -9.511,-0.109 -12.759,-0.455C-12.789,1.704 -12.804,2.778 -12.835,4.928C-8.064,5.383 -3.356,5.901 -3.356,5.901C1.459,6.423 4.077,4.727 4.563,1.66C4.834,-0.069 4.341,-1.942 3.698,-3.63C1.518,-9.193 0.402,-12.02 -1.892,-17.756C-2.499,-19.211 -1.705,-19.899 0,-19.606" style="fill:white;"/>
            </g>
            <g transform="matrix(1,0,0,1,973.105,495.945)">
                <path d="M0,-5.265C-0.011,-3.922 -0.471,-3.239 -2.216,-3.263C-3.413,-3.284 -4.012,-3.296 -5.211,-3.304C-5.214,-7.994 -5.222,-10.334 -5.226,-15.026C-4.056,-14.985 -3.469,-14.966 -2.298,-14.925C-0.632,-14.861 0.057,-14.242 0.044,-12.534C0.027,-9.626 0.016,-8.172 0,-5.265M0.216,-21.14C-4.98,-21.41 -7.579,-21.522 -12.779,-21.695C-12.691,-14.354 -12.647,-10.681 -12.554,-3.344C-13.618,-3.344 -14.146,-3.344 -15.208,-3.335C-15.163,-0.74 -15.143,0.56 -15.104,3.16C-14.049,3.14 -13.527,3.132 -12.476,3.115C-12.412,8.443 -12.374,11.107 -12.309,16.43C-9.462,16.321 -8.036,16.273 -5.182,16.193C-5.19,10.938 -5.194,8.318 -5.2,3.067C-3.166,3.064 -2.146,3.064 -0.108,3.08C5.316,3.108 7.252,1.262 7.324,-2.901C7.404,-7.537 7.446,-9.856 7.529,-14.491C7.605,-18.97 5.491,-20.862 0.216,-21.14" style="fill:white;"/>
            </g>
            <g transform="matrix(1,0,0,1,943.492,481.109)">
                <path d="M0,25.486C-0.529,25.514 -0.795,25.522 -1.325,25.549C-2.764,25.631 -3.349,24.983 -3.397,23.789C-3.781,14.837 -3.974,10.366 -4.36,1.422C-4.42,0.055 -3.87,-0.524 -2.546,-0.532C-1.948,-0.539 -1.648,-0.535 -1.048,-0.539C0.506,-0.548 0.926,0.02 0.971,1.374C1.288,10.238 1.444,14.668 1.758,23.528C1.799,24.658 1.216,25.421 0,25.486M8.383,-0.472C8.27,-5.09 5.955,-7.149 0.729,-7.201C-1.454,-7.22 -2.546,-7.229 -4.73,-7.233C-9.903,-7.24 -12.165,-4.897 -11.921,-0.394C-11.355,10.21 -11.069,15.511 -10.502,26.121C-10.257,30.618 -7.897,32.726 -3.029,32.38C-0.972,32.236 0.057,32.171 2.114,32.037C7.041,31.733 9.125,29.631 9.01,25.015C8.759,14.82 8.634,9.723 8.383,-0.472" style="fill:white;"/>
            </g>
            <g transform="matrix(1,0,0,1,998.567,483.556)">
                <path d="M0,20.787C-0.048,21.797 -0.687,22.439 -1.901,22.404C-2.437,22.387 -2.702,22.38 -3.23,22.363C-4.672,22.323 -5.201,21.696 -5.162,20.618C-4.855,12.563 -4.701,8.534 -4.397,0.479C-4.349,-0.756 -3.763,-1.226 -2.44,-1.125C-1.846,-1.081 -1.547,-1.061 -0.95,-1.012C0.595,-0.892 0.977,-0.353 0.921,0.865C0.555,8.832 0.366,12.815 0,20.787M1.335,-6.842C-0.84,-7.039 -1.93,-7.136 -4.104,-7.316C-9.256,-7.747 -11.686,-5.821 -11.795,-1.76C-12.05,7.819 -12.177,12.607 -12.43,22.182C-12.54,26.242 -10.348,28.308 -5.456,28.361C-3.396,28.385 -2.36,28.401 -0.298,28.441C4.641,28.534 6.887,26.821 7.123,22.677C7.649,13.536 7.917,8.961 8.443,-0.18C8.683,-4.321 6.536,-6.363 1.335,-6.842" style="fill:white;"/>
            </g>
        </g>
    </g>
</svg>
