<svg width="256" height="256" viewBox="0 0 256 256" fill="none" xmlns="http://www.w3.org/2000/svg">
<path fill-rule="evenodd" clip-rule="evenodd" d="M166.302 120.003V99.0381C166.302 98.4336 165.917 97.8937 165.341 97.703L162.579 96.7742C162.148 96.626 161.673 96.6994 161.301 96.9649C160.933 97.2305 160.715 97.6582 160.715 98.1123V119.077C160.715 119.682 161.103 120.221 161.679 120.416L164.442 121.342C164.587 121.393 164.74 121.416 164.89 121.416C165.182 121.416 165.474 121.327 165.716 121.15C166.088 120.885 166.302 120.457 166.302 120.003ZM157.762 68.5543C157.762 67.9469 157.374 67.4069 156.801 67.2147L154.037 66.283C153.599 66.1363 153.132 66.2067 152.759 66.4723C152.39 66.7371 152.171 67.1648 152.171 67.6197V88.5871C152.171 89.1945 152.558 89.7315 153.136 89.9259L155.898 90.8547C156.043 90.9046 156.197 90.9317 156.35 90.9317C156.642 90.9317 156.931 90.8407 157.173 90.6661C157.545 90.4006 157.762 89.9729 157.762 89.5188V68.5543ZM156.801 94.8184L154.037 93.886C153.599 93.7392 153.132 93.8126 152.759 94.0782C152.39 94.3437 152.171 94.7714 152.171 95.2255V116.191C152.171 116.798 152.558 117.337 153.136 117.532L155.898 118.461C156.043 118.51 156.197 118.535 156.35 118.535C156.642 118.535 156.931 118.444 157.173 118.272C157.545 118.006 157.762 117.579 157.762 117.122V96.1572C157.762 95.5498 157.374 95.0128 156.801 94.8184ZM101.783 73.6823H97.0384V75.7643L101.783 73.9009V73.6823ZM125.536 73.0396L117.965 76.0122C116.615 76.5309 115.157 76.3431 114.022 75.561C112.871 74.779 112.176 73.4673 112.176 72.0632V62.5262L107.437 64.3866V74.8648C107.437 76.6167 106.378 78.1683 104.744 78.8109L97.1741 81.7806C95.8184 82.3022 94.3702 82.1107 93.2317 81.3294C92.0821 80.5511 91.3859 79.2386 91.3859 77.8345V70.6957L86.0775 72.7836V182.037L80.4235 182.311V70.8542C80.4235 69.6929 81.1344 68.6519 82.2143 68.2242L93.1781 63.9157C94.0423 63.5701 95.0297 63.6831 95.8059 64.2128C96.5784 64.738 97.0384 65.6103 97.0384 66.5457V68.029H101.783V62.4609C101.783 61.2989 102.497 60.2557 103.58 59.8309L107.776 58.1795V25.8103C107.776 25.3188 108.033 24.8581 108.454 24.6043C108.873 24.3446 109.398 24.327 109.838 24.5544C113.311 26.3495 117.599 25.5954 122.073 24.4429C124.666 23.7753 127.34 23.0857 130.067 23.0857C132.351 23.0857 134.391 23.5691 136.312 24.5544C136.78 24.7994 137.078 25.2829 137.078 25.8103V42.065C137.078 42.558 136.819 43.0158 136.396 43.2718C135.978 43.5278 135.453 43.5462 135.014 43.3224C131.545 41.5353 127.252 42.2807 122.778 43.4369C120.189 44.103 117.514 44.7933 114.782 44.7933C114.319 44.7933 113.876 44.761 113.43 44.7229V55.9618L113.969 55.7469C114.845 55.4043 115.82 55.5195 116.597 56.044C117.369 56.5693 117.83 57.4423 117.83 58.3769V68.029H122.427C122.48 68.029 122.521 68.0554 122.575 68.0584V54.2987C122.575 53.1338 123.285 52.092 124.364 51.6687L135.877 47.1438C136.509 46.8966 137.202 46.8819 137.835 47.0998L173.664 59.456C174.803 59.8485 175.566 60.9218 175.566 62.1286V185.643L169.916 184.941V64.1416L139.903 53.794V182.417L134.249 182.131V53.8556L128.224 56.2237V69.0935C128.224 70.8483 127.169 72.3992 125.536 73.0396ZM145.494 63.3992C145.059 63.2554 144.589 63.3258 144.218 63.5907C143.846 63.8562 143.628 64.2839 143.628 64.738V85.7025C143.628 86.3099 144.013 86.8469 144.592 87.0414L147.355 87.9701C147.503 88.0207 147.653 88.0442 147.807 88.0442C148.099 88.0442 148.388 87.9554 148.63 87.7823C149 87.5167 149.22 87.089 149.22 86.6342V65.6697C149.22 65.0652 148.833 64.526 148.258 64.3338L145.494 63.3992ZM162.579 69.1705C162.148 69.0223 161.673 69.0935 161.301 69.3591C160.933 69.6276 160.715 70.0523 160.715 70.5057V91.4709C160.715 92.0791 161.103 92.6153 161.679 92.8105L164.442 93.7392C164.587 93.7855 164.74 93.8126 164.89 93.8126C165.182 93.8126 165.474 93.7216 165.716 93.547C166.088 93.2785 166.302 92.8538 166.302 92.3975V71.4352C166.302 70.8278 165.917 70.2878 165.341 70.0964L162.579 69.1705ZM116.288 167.18C116.288 163.849 113.589 161.152 110.259 161.152C106.93 161.152 104.231 163.849 104.231 167.18V181.559H116.288V167.18ZM147.355 115.577L144.592 114.647C144.013 114.453 143.628 113.913 143.628 113.305V92.3439C143.628 91.8869 143.846 91.4592 144.218 91.1936C144.589 90.9317 145.059 90.8576 145.494 91.0051L148.258 91.9375C148.833 92.1319 149.22 92.6682 149.22 93.2763V114.238C149.22 114.695 149 115.123 148.63 115.385C148.388 115.558 148.099 115.65 147.807 115.65C147.653 115.65 147.503 115.624 147.355 115.577Z" fill="white"/>
<path fill-rule="evenodd" clip-rule="evenodd" d="M76.1207 197.435C77.2769 207.874 77.852 213.095 79.006 223.541C78.0523 223.665 77.5784 223.726 76.6254 223.856C75.7003 223.979 75.1831 223.402 75.0804 222.538C73.9132 212.614 73.3278 207.651 72.1577 197.725C69.9429 197.898 68.8352 197.99 66.6219 198.188C67.9834 208.831 68.6628 214.151 70.0251 224.794C70.4851 228.383 72.3477 229.949 75.8881 229.415C79.4388 228.878 81.2164 228.625 84.7751 228.156C83.7327 217.799 82.7027 207.436 81.6624 197.079C79.4447 197.208 78.3355 197.28 76.1207 197.435Z" fill="white"/>
<path fill-rule="evenodd" clip-rule="evenodd" d="M96.2395 221.61C95.4465 221.684 95.0503 221.72 94.258 221.8C93.6139 213.766 93.2904 209.749 92.6448 201.716C93.4708 201.675 93.8853 201.657 94.7106 201.619C95.9336 201.566 96.5197 202.061 96.6144 203.359C97.0927 209.87 97.3311 213.126 97.8058 219.641C97.8879 220.764 97.3311 221.51 96.2395 221.61ZM103.204 221.015C102.71 213.161 102.465 209.239 101.971 201.386C101.766 198.095 99.5187 196.331 96.0671 196.435C92.3132 196.546 90.4381 196.62 86.6879 196.802C87.8044 209.103 88.3627 215.254 89.4807 227.559C93.0094 227.129 94.7767 226.93 98.3149 226.564C101.356 226.256 103.4 224.135 103.204 221.015Z" fill="white"/>
<path fill-rule="evenodd" clip-rule="evenodd" d="M59.5127 226.467C57.9024 215.612 57.0969 210.186 55.4881 199.334C53.2763 199.578 52.1722 199.707 49.9603 199.979C51.7034 210.985 53.4457 221.994 55.1917 233C59.5237 232.148 61.6908 231.746 66.0411 230.994C65.9472 228.765 65.901 227.65 65.8115 225.423C63.2901 225.827 62.0275 226.034 59.5127 226.467Z" fill="white"/>
<path fill-rule="evenodd" clip-rule="evenodd" d="M181.966 225.346C184.246 225.506 185.384 225.588 187.665 225.769C188.134 216.398 188.371 211.716 188.842 202.346C186.444 201.995 185.244 201.826 182.846 201.502C182.492 211.04 182.319 215.81 181.966 225.346Z" fill="white"/>
<path fill-rule="evenodd" clip-rule="evenodd" d="M172.776 200.042C170.579 199.77 169.48 199.641 167.275 199.393C166.592 209.423 166.252 214.436 165.571 224.465C169.984 224.64 172.189 224.752 176.601 225.032C176.965 223.401 177.145 222.587 177.514 220.963C174.964 220.765 173.691 220.676 171.14 220.514C171.794 212.324 172.118 208.228 172.776 200.042Z" fill="white"/>
<path fill-rule="evenodd" clip-rule="evenodd" d="M200.835 208.175C202.867 208.52 203.884 208.7 205.91 209.068C205.965 207.539 205.988 206.774 206.04 205.235C203.663 204.777 202.47 204.554 200.086 204.126C196.393 203.463 194.011 204.964 193.744 207.048C193.626 207.978 193.675 208.936 194.124 210.045C196.019 214.743 196.933 217.057 198.725 221.602C199.118 222.608 198.607 223.032 197.432 222.892C195.052 222.611 193.857 222.478 191.475 222.224C191.453 223.808 191.442 224.596 191.419 226.173C194.919 226.507 198.373 226.887 198.373 226.887C201.905 227.27 203.826 226.026 204.182 223.776C204.381 222.507 204.019 221.133 203.548 219.895C201.948 215.814 201.13 213.74 199.447 209.532C199.001 208.465 199.584 207.96 200.835 208.175Z" fill="white"/>
<path fill-rule="evenodd" clip-rule="evenodd" d="M137.22 208.542C137.212 209.527 136.875 210.028 135.594 210.011C134.716 209.995 134.277 209.986 133.397 209.981C133.395 206.54 133.389 204.823 133.386 201.381C134.245 201.411 134.675 201.425 135.534 201.455C136.756 201.502 137.262 201.956 137.252 203.209C137.24 205.343 137.232 206.409 137.22 208.542ZM137.379 196.896C133.567 196.698 131.66 196.616 127.845 196.489C127.91 201.874 127.942 204.569 128.01 209.951C127.23 209.951 126.842 209.951 126.063 209.958C126.096 211.862 126.111 212.815 126.14 214.723C126.914 214.708 127.297 214.702 128.068 214.69C128.115 218.598 128.142 220.553 128.19 224.458C130.279 224.378 131.325 224.343 133.419 224.284C133.413 220.429 133.41 218.507 133.405 214.654C134.898 214.652 135.646 214.652 137.141 214.664C141.12 214.685 142.54 213.33 142.593 210.276C142.652 206.875 142.683 205.174 142.744 201.774C142.799 198.488 141.248 197.1 137.379 196.896Z" fill="white"/>
<path fill-rule="evenodd" clip-rule="evenodd" d="M115.493 220.207C115.105 220.227 114.91 220.233 114.521 220.253C113.466 220.313 113.036 219.838 113.001 218.962C112.719 212.394 112.578 209.114 112.295 202.553C112.251 201.55 112.654 201.125 113.625 201.119C114.064 201.114 114.284 201.117 114.724 201.114C115.864 201.108 116.173 201.524 116.206 202.518C116.438 209.02 116.553 212.27 116.783 218.77C116.813 219.599 116.385 220.159 115.493 220.207ZM121.643 201.163C121.56 197.776 119.862 196.265 116.028 196.227C114.427 196.213 113.625 196.206 112.023 196.204C108.228 196.198 106.569 197.917 106.748 201.221C107.163 209 107.373 212.889 107.789 220.672C107.969 223.972 109.7 225.518 113.271 225.264C114.78 225.159 115.535 225.111 117.044 225.013C120.659 224.79 122.187 223.247 122.103 219.861C121.919 212.382 121.827 208.643 121.643 201.163Z" fill="white"/>
<path fill-rule="evenodd" clip-rule="evenodd" d="M155.9 218.557C155.865 219.298 155.396 219.769 154.506 219.743C154.112 219.731 153.918 219.726 153.531 219.713C152.473 219.684 152.085 219.224 152.113 218.433C152.339 212.524 152.451 209.568 152.675 203.659C152.71 202.753 153.14 202.408 154.11 202.482C154.546 202.515 154.765 202.529 155.203 202.565C156.337 202.653 156.617 203.049 156.576 203.942C156.307 209.787 156.169 212.709 155.9 218.557ZM156.88 198.288C155.284 198.144 154.484 198.073 152.889 197.94C149.11 197.624 147.327 199.037 147.247 202.016C147.06 209.044 146.967 212.556 146.781 219.581C146.701 222.559 148.309 224.075 151.898 224.114C153.409 224.131 154.169 224.143 155.682 224.172C159.305 224.241 160.953 222.984 161.126 219.944C161.512 213.238 161.708 209.882 162.094 203.176C162.27 200.138 160.695 198.64 156.88 198.288Z" fill="white"/>
</svg>
