<?xml version="1.0" encoding="UTF-8" standalone="no"?>
<!DOCTYPE svg PUBLIC "-//W3C//DTD SVG 1.1//EN" "http://www.w3.org/Graphics/SVG/1.1/DTD/svg11.dtd">
<svg width="100%" height="100%" viewBox="0 0 350 350" version="1.1" xmlns="http://www.w3.org/2000/svg" xmlns:xlink="http://www.w3.org/1999/xlink" xml:space="preserve" xmlns:serif="http://www.serif.com/" style="fill-rule:evenodd;clip-rule:evenodd;stroke-linejoin:round;stroke-miterlimit:2;">
    <g transform="matrix(0.788417,0,0,0.895477,-605.702,-1397.19)">
        <path d="M1037.54,1836.79L1089.29,1786.29L1184.03,1787.79L1160.03,1844.79L1037.54,1836.79Z" style="fill:rgb(230,230,230);"/>
    </g>
    <g transform="matrix(0.788417,0,0,0.895477,-605.702,-1397.19)">
        <path d="M887.487,1648.86L860.782,1654.79C858.746,1655.25 856.676,1654.16 856.162,1652.37C855.648,1650.57 856.884,1648.75 858.92,1648.3L891.585,1641.04C892.863,1640.75 894.216,1641.07 895.163,1641.88C896.11,1642.69 896.515,1643.87 896.234,1645L879.738,1711.51C879.29,1713.31 877.26,1714.46 875.208,1714.06C873.157,1713.67 871.855,1711.88 872.303,1710.08L887.487,1648.86Z" style="fill:rgb(194,142,142);"/>
    </g>
    <g transform="matrix(0.788417,0,0,0.895477,-537.11,-1427.64)">
        <path d="M1013.06,1809.52L1062.73,1825.32C1064.7,1825.95 1065.73,1827.87 1065.01,1829.61C1064.3,1831.35 1062.12,1832.25 1060.14,1831.62L1009.4,1815.48C1008.71,1815.26 1008.1,1814.86 1007.65,1814.34L989.202,1792.67C987.942,1791.19 988.283,1789.09 989.964,1787.98C991.644,1786.87 994.031,1787.17 995.291,1788.65L1013.06,1809.52Z" style="fill:rgb(194,142,142);"/>
    </g>
    <g transform="matrix(0.788417,0,0,0.895477,-604.945,-1415.03)">
        <path d="M881.208,1711.34C874.724,1712 866.708,1714.31 856.721,1726.02C836.397,1727.04 832.36,1728.01 819.033,1739.81C798.615,1757.9 811.229,1794.98 839.637,1814.39C863.501,1830.7 892.814,1846.43 983.729,1833.84C1079.07,1820.63 1105.52,1763.63 1087.9,1721.93C1078.04,1698.6 1045.41,1685.48 1016.24,1690.26C947.054,1701.58 928.571,1738.28 928.571,1738.28C928.571,1738.28 909.564,1708.44 881.208,1711.34Z" style="fill:rgb(225,232,80);"/>
    </g>
    <g transform="matrix(1,0,0,1,-794.185,-3503.75)">
        <path d="M1078,3683L1093,3690L1113,3679L1098,3673.21L1078,3683Z" style="fill:rgb(224,231,79);"/>
    </g>
    <g transform="matrix(1,0,0,1,-798.185,-3499.83)">
        <path d="M1095.5,3681.6L1113,3668.75L1127,3673.21L1113,3686.6L1095.5,3681.6Z" style="fill:rgb(164,90,188);"/>
    </g>
    <g transform="matrix(1,0,0,1,-806.185,-3464.04)">
        <path d="M1130.23,3691.76C1128.92,3691.25 1128,3689.98 1128,3688.5C1128,3686.57 1129.57,3685 1131.5,3685C1133.43,3685 1135,3686.57 1135,3688.5C1135,3689.98 1134.08,3691.25 1132.77,3691.76C1132.53,3694.34 1132.48,3698.96 1135,3700C1135,3700 1137.37,3700.75 1136,3702C1136,3702 1137.37,3702.76 1137,3704C1136.66,3705.11 1135.02,3705.83 1131.5,3706C1126.62,3705.62 1126,3704 1126,3704C1125.63,3702.76 1127,3702 1127,3702C1125.63,3700.75 1128,3700 1128,3700C1130.52,3698.96 1130.47,3694.34 1130.23,3691.76Z" style="fill:rgb(102,55,0);"/>
    </g>
    <g transform="matrix(1,0,0,1,-790.884,-3474.54)">
        <path d="M1130.23,3691.76C1128.92,3691.25 1128,3689.98 1128,3688.5C1128,3686.57 1129.57,3685 1131.5,3685C1133.43,3685 1135,3686.57 1135,3688.5C1135,3689.98 1134.08,3691.25 1132.77,3691.76C1132.53,3694.34 1132.48,3698.96 1135,3700C1135,3700 1137.37,3700.75 1136,3702C1136,3702 1137.37,3702.76 1137,3704C1136.66,3705.11 1135.02,3705.83 1131.5,3706C1126.62,3705.62 1126,3704 1126,3704C1125.63,3702.76 1127,3702 1127,3702C1125.63,3700.75 1128,3700 1128,3700C1130.52,3698.96 1130.47,3694.34 1130.23,3691.76Z" style="fill:rgb(54,55,0);"/>
    </g>
    <g transform="matrix(1,0,0,1,-846.185,-3483.75)">
        <path d="M1116.07,3738L1127.2,3744L1138.24,3738L1127.2,3732L1116.07,3738Z" style="fill:white;"/>
    </g>
    <g transform="matrix(1,0,0,1,-846.185,-3483.75)">
        <path d="M1116.07,3753L1116.07,3738L1127.2,3744L1127.2,3758.52L1116.07,3753Z" style="fill:white;"/>
    </g>
    <g transform="matrix(1,0,0,1,-846.185,-3483.75)">
        <path d="M1127.2,3758.52L1127.2,3744L1138.24,3738L1138.24,3750L1127.2,3758.52Z" style="fill:rgb(228,228,228);"/>
    </g>
    <g transform="matrix(1,0,0,1,-846.185,-3483.75)">
        <ellipse cx="1126.5" cy="3738" rx="2.5" ry="1"/>
    </g>
    <g transform="matrix(1,0,0,1,-846.185,-3483.75)">
        <ellipse cx="1130.5" cy="3746.63" rx="1.5" ry="1.631"/>
    </g>
    <g transform="matrix(1,0,0,1,-846.185,-3483.75)">
        <ellipse cx="1135" cy="3747.95" rx="2" ry="2.054"/>
    </g>
    <g transform="matrix(1,0,0,1,-847.185,-3484.75)">
        <circle cx="1119" cy="3744" r="1"/>
    </g>
    <g transform="matrix(1,0,0,1,-847.185,-3484.75)">
        <ellipse cx="1121.5" cy="3749.47" rx="1.5" ry="1.527"/>
    </g>
    <g transform="matrix(1,0,0,1,-847.185,-3484.75)">
        <circle cx="1124.5" cy="3754.5" r="1.5"/>
    </g>
    <g transform="matrix(1,0,0,1,-804.049,-3489.28)">
        <path d="M1130.23,3691.76C1128.92,3691.25 1128,3689.98 1128,3688.5C1128,3686.57 1129.57,3685 1131.5,3685C1133.43,3685 1135,3686.57 1135,3688.5C1135,3689.98 1134.08,3691.25 1132.77,3691.76C1132.53,3694.34 1132.48,3698.96 1135,3700C1135,3700 1137.37,3700.75 1136,3702C1136,3702 1137.37,3702.76 1137,3704C1136.66,3705.11 1135.02,3705.83 1131.5,3706C1126.62,3705.62 1126,3704 1126,3704C1125.63,3702.76 1127,3702 1127,3702C1125.63,3700.75 1128,3700 1128,3700C1130.52,3698.96 1130.47,3694.34 1130.23,3691.76Z" style="fill:white;"/>
    </g>
    <g transform="matrix(0.788417,0,0,0.895477,-605.702,-1397.19)">
        <path d="M1001.21,1828.06L1088.17,1804.59C1090.18,1804.04 1092.31,1805.04 1092.92,1806.81C1093.54,1808.57 1092.41,1810.45 1090.4,1810.99L999.645,1835.49C998.654,1835.76 997.582,1835.66 996.677,1835.21C995.772,1834.77 995.112,1834.02 994.849,1833.13L972.351,1757.51C971.819,1755.72 973.036,1753.89 975.068,1753.42C977.099,1752.95 979.181,1754.03 979.713,1755.81L1001.21,1828.06Z" style="fill:rgb(194,142,142);"/>
    </g>
    <g transform="matrix(0.788417,0,0,0.895477,-605.702,-1397.19)">
        <path d="M813.386,1665.28L784.917,1670.42C782.859,1670.79 780.847,1669.62 780.426,1667.81C780.004,1665.99 781.333,1664.22 783.39,1663.85L819.922,1657.27C821.375,1657 822.868,1657.51 823.748,1658.56C824.628,1659.61 824.734,1661.02 824.02,1662.16L778.561,1734.97L835.67,1753.52C837.641,1754.16 838.65,1756.09 837.923,1757.82C837.196,1759.56 835.006,1760.45 833.036,1759.81L771.78,1739.9C770.741,1739.57 769.92,1738.85 769.532,1737.93C769.145,1737.02 769.229,1736 769.763,1735.15L813.386,1665.28Z" style="fill:rgb(194,142,142);"/>
    </g>
    <g transform="matrix(0.895525,0.116242,-0.0402326,0.399844,-646.422,-647.098)">
        <circle cx="1036.65" cy="1685.16" r="7.621" style="fill:white;"/>
    </g>
    <g transform="matrix(0.895525,0.116242,-0.0402326,0.399844,-626.741,-644.34)">
        <circle cx="1036.65" cy="1685.16" r="7.621" style="fill:white;"/>
    </g>
    <g transform="matrix(0.788417,0,0,0.895477,-605.702,-1397.19)">
        <path d="M1032.66,1750.29C1032.66,1750.29 1010.03,1738.29 1019.53,1732.29C1029.03,1726.29 1045.16,1749.29 1045.16,1749.29L1032.66,1750.29Z" style="fill:rgb(255,0,0);"/>
    </g>
    <g transform="matrix(0.788417,0,0,0.895477,-591.065,-1378.31)">
        <path d="M1061.9,1753.97L1075.41,1796.05L1083.05,1794.45L1069.64,1751.57L1061.9,1753.97Z" style="fill:rgb(11,158,236);"/>
    </g>
    <g transform="matrix(0.788417,0,0,0.895477,-591.065,-1378.31)">
        <path d="M1075.41,1796.05L1082.62,1807.97L1083.05,1794.45L1075.41,1796.05Z" style="fill:rgb(223,197,140);"/>
    </g>
    <g transform="matrix(0.788417,0,0,0.895477,-591.065,-1378.31)">
        <path d="M1082.74,1803.92L1080.51,1804.47L1082.61,1807.97L1082.74,1803.92Z"/>
    </g>
</svg>
