<?xml version="1.0" encoding="UTF-8" standalone="no"?>
<!DOCTYPE svg PUBLIC "-//W3C//DTD SVG 1.1//EN" "http://www.w3.org/Graphics/SVG/1.1/DTD/svg11.dtd">
<svg width="100%" height="100%" viewBox="0 0 350 350" version="1.1" xmlns="http://www.w3.org/2000/svg" xmlns:xlink="http://www.w3.org/1999/xlink" xml:space="preserve" xmlns:serif="http://www.serif.com/" style="fill-rule:evenodd;clip-rule:evenodd;stroke-linejoin:round;stroke-miterlimit:2;">
    <g transform="matrix(1.08956,0,0,1.08956,405.023,-2317.87)">
        <path d="M-220.523,2344.39C-220.523,2344.39 -215.918,2370.99 -217.976,2387.12C-218.382,2390.3 -219.031,2393.04 -220.099,2395C-220.837,2396.35 -221.742,2397.3 -223.078,2397.34C-230.902,2397.61 -232.577,2397.37 -232.577,2397.37C-233.828,2397.17 -235.004,2398.03 -235.203,2399.28C-235.401,2400.53 -234.546,2401.7 -233.295,2401.9C-233.295,2401.9 -231.466,2402.22 -222.922,2401.93C-220.505,2401.85 -218.539,2400.71 -217.008,2398.67C-215.202,2396.26 -214.022,2392.38 -213.424,2387.7C-211.301,2371.06 -216.001,2343.61 -216.001,2343.61C-216.216,2342.36 -217.403,2341.52 -218.651,2341.74C-219.899,2341.95 -220.738,2343.14 -220.523,2344.39Z" style="fill:rgb(5,46,61);"/>
    </g>
    <g transform="matrix(1.08956,0,0,1.08956,405.023,-2317.87)">
        <path d="M-202.746,2332.74C-202.746,2332.74 -205.959,2360.58 -205.637,2379.2C-205.536,2385.02 -205.069,2389.98 -204.115,2393.03C-203.562,2394.8 -202.788,2396.04 -201.955,2396.75C-194.832,2402.81 -181.811,2401.86 -181.811,2401.86C-180.549,2401.75 -179.609,2400.64 -179.713,2399.38C-179.817,2398.12 -180.927,2397.18 -182.189,2397.28C-182.189,2397.28 -193.061,2398.3 -198.979,2393.25C-199.507,2392.8 -199.75,2391.79 -200.047,2390.48C-200.682,2387.68 -200.97,2383.69 -201.049,2379.12C-201.366,2360.74 -198.188,2333.26 -198.188,2333.26C-198.042,2332.01 -198.946,2330.87 -200.204,2330.72C-201.462,2330.58 -202.601,2331.48 -202.746,2332.74Z" style="fill:rgb(5,46,61);"/>
    </g>
    <g transform="matrix(1,0,0,1,-782.88,-2104.92)">
        <path d="M953.622,2348.95C954.621,2348.94 955.639,2348.92 956.671,2348.88C957.499,2348.85 958.144,2348.15 958.112,2347.33C958.08,2346.5 957.383,2345.85 956.556,2345.89C955.557,2345.92 954.573,2345.94 953.607,2345.95C952.779,2345.95 952.11,2346.63 952.114,2347.46C952.119,2348.28 952.794,2348.95 953.622,2348.95ZM944.479,2348.53C945.453,2348.63 946.47,2348.71 947.524,2348.78C948.35,2348.83 949.063,2348.2 949.115,2347.37C949.167,2346.55 948.538,2345.83 947.712,2345.78C946.696,2345.72 945.715,2345.64 944.776,2345.55C943.953,2345.46 943.217,2346.07 943.135,2346.89C943.053,2347.71 943.655,2348.45 944.479,2348.53ZM962.759,2348.44C963.764,2348.33 964.775,2348.2 965.79,2348.05C966.609,2347.93 967.176,2347.17 967.056,2346.35C966.935,2345.53 966.173,2344.96 965.354,2345.08C964.376,2345.22 963.402,2345.35 962.434,2345.45C961.611,2345.54 961.015,2346.28 961.105,2347.11C961.195,2347.93 961.936,2348.53 962.759,2348.44ZM935.353,2346.93C936.216,2347.18 937.239,2347.42 938.401,2347.65C939.213,2347.81 940.002,2347.28 940.163,2346.47C940.323,2345.66 939.794,2344.87 938.982,2344.71C937.92,2344.5 936.984,2344.28 936.195,2344.05C935.401,2343.81 934.567,2344.27 934.335,2345.06C934.102,2345.86 934.559,2346.69 935.353,2346.93ZM971.806,2346.91C972.801,2346.68 973.793,2346.43 974.779,2346.15C975.576,2345.93 976.04,2345.1 975.815,2344.3C975.591,2343.5 974.761,2343.04 973.964,2343.26C973.023,2343.53 972.076,2343.77 971.126,2343.99C970.32,2344.18 969.818,2344.99 970.005,2345.79C970.193,2346.6 971,2347.1 971.806,2346.91ZM980.609,2344.18C981.567,2343.8 982.512,2343.39 983.443,2342.95C984.193,2342.6 984.515,2341.71 984.164,2340.96C983.812,2340.21 982.918,2339.89 982.168,2340.24C981.291,2340.65 980.4,2341.03 979.498,2341.39C978.729,2341.7 978.354,2342.57 978.66,2343.34C978.967,2344.11 979.84,2344.49 980.609,2344.18ZM928.456,2339.87C929.022,2340.85 929.573,2341.74 930.106,2342.51C930.574,2343.2 931.509,2343.37 932.191,2342.9C932.874,2342.43 933.048,2341.5 932.58,2340.82C932.088,2340.1 931.581,2339.28 931.058,2338.37C930.646,2337.66 929.729,2337.41 929.011,2337.82C928.293,2338.23 928.044,2339.15 928.456,2339.87ZM988.868,2339.95C989.74,2339.39 990.59,2338.8 991.417,2338.17C992.076,2337.66 992.203,2336.72 991.702,2336.06C991.201,2335.41 990.259,2335.28 989.6,2335.78C988.834,2336.36 988.046,2336.91 987.238,2337.44C986.543,2337.89 986.344,2338.82 986.794,2339.51C987.244,2340.2 988.173,2340.4 988.868,2339.95ZM924.389,2331.67C924.815,2332.63 925.236,2333.55 925.652,2334.43C926.005,2335.18 926.9,2335.5 927.649,2335.14C928.397,2334.79 928.718,2333.9 928.364,2333.15C927.958,2332.29 927.547,2331.39 927.132,2330.45C926.796,2329.7 925.909,2329.35 925.152,2329.69C924.395,2330.03 924.053,2330.91 924.389,2331.67ZM996.059,2333.99C996.769,2333.24 997.45,2332.44 998.099,2331.62C998.61,2330.97 998.496,2330.02 997.845,2329.51C997.193,2329 996.25,2329.11 995.739,2329.76C995.144,2330.52 994.521,2331.25 993.871,2331.94C993.305,2332.54 993.335,2333.49 993.938,2334.06C994.542,2334.63 995.492,2334.6 996.059,2333.99ZM1001.5,2326.37C1001.97,2325.51 1002.43,2324.61 1002.9,2323.66C1003.27,2322.92 1002.96,2322.02 1002.22,2321.65C1001.48,2321.29 1000.58,2321.59 1000.21,2322.33C999.758,2323.24 999.308,2324.12 998.86,2324.95C998.468,2325.68 998.742,2326.59 999.472,2326.99C1000.2,2327.38 1001.11,2327.1 1001.5,2326.37ZM920.927,2323.28C921.299,2324.24 921.669,2325.18 922.037,2326.09C922.347,2326.86 923.222,2327.23 923.989,2326.92C924.757,2326.61 925.129,2325.74 924.82,2324.97C924.457,2324.07 924.091,2323.15 923.724,2322.2C923.425,2321.43 922.555,2321.04 921.783,2321.34C921.011,2321.64 920.628,2322.51 920.927,2323.28ZM1005.45,2318.16C1005.85,2317.25 1006.25,2316.32 1006.64,2315.37C1006.96,2314.61 1006.6,2313.73 1005.83,2313.41C1005.07,2313.09 1004.19,2313.45 1003.87,2314.22C1003.48,2315.15 1003.09,2316.07 1002.71,2316.95C1002.37,2317.71 1002.72,2318.6 1003.48,2318.93C1004.24,2319.26 1005.12,2318.91 1005.45,2318.16ZM917.79,2314.8C918.13,2315.76 918.469,2316.71 918.808,2317.64C919.091,2318.42 919.952,2318.82 920.73,2318.53C921.508,2318.25 921.91,2317.39 921.627,2316.61C921.291,2315.69 920.955,2314.75 920.619,2313.8C920.343,2313.02 919.485,2312.61 918.704,2312.89C917.924,2313.16 917.514,2314.02 917.79,2314.8ZM1008.88,2309.76C1009.23,2308.83 1009.58,2307.89 1009.94,2306.93C1010.22,2306.15 1009.82,2305.29 1009.05,2305C1008.27,2304.72 1007.41,2305.12 1007.12,2305.89C1006.77,2306.84 1006.42,2307.77 1006.07,2308.69C1005.78,2309.46 1006.17,2310.33 1006.94,2310.62C1007.71,2310.92 1008.58,2310.53 1008.88,2309.76ZM914.878,2306.25C915.194,2307.21 915.511,2308.16 915.827,2309.11C916.091,2309.89 916.943,2310.31 917.727,2310.05C918.512,2309.79 918.935,2308.93 918.671,2308.15C918.356,2307.22 918.042,2306.27 917.728,2305.31C917.47,2304.53 916.621,2304.1 915.835,2304.36C915.048,2304.62 914.62,2305.46 914.878,2306.25ZM1011.96,2301.25C1012.28,2300.3 1012.6,2299.35 1012.92,2298.39C1013.19,2297.61 1012.76,2296.76 1011.98,2296.49C1011.19,2296.23 1010.34,2296.66 1010.08,2297.44C1009.76,2298.39 1009.44,2299.34 1009.12,2300.27C1008.85,2301.05 1009.27,2301.91 1010.05,2302.18C1010.83,2302.45 1011.69,2302.03 1011.96,2301.25ZM912.143,2297.65C912.44,2298.61 912.738,2299.57 913.037,2300.52C913.285,2301.31 914.128,2301.75 914.918,2301.5C915.707,2301.25 916.147,2300.41 915.899,2299.62C915.601,2298.67 915.305,2297.72 915.01,2296.76C914.767,2295.97 913.926,2295.53 913.135,2295.77C912.344,2296.01 911.899,2296.86 912.143,2297.65ZM1014.78,2292.66C1015.08,2291.7 1015.38,2290.74 1015.67,2289.78C1015.91,2288.99 1015.47,2288.15 1014.67,2287.91C1013.88,2287.67 1013.04,2288.11 1012.8,2288.91C1012.51,2289.86 1012.21,2290.81 1011.92,2291.76C1011.67,2292.55 1012.11,2293.39 1012.9,2293.64C1013.69,2293.89 1014.53,2293.45 1014.78,2292.66ZM909.561,2289C909.841,2289.96 910.122,2290.93 910.406,2291.89C910.64,2292.68 911.475,2293.13 912.269,2292.9C913.063,2292.66 913.517,2291.83 913.283,2291.03C913.001,2290.08 912.721,2289.12 912.443,2288.16C912.213,2287.37 911.38,2286.91 910.585,2287.14C909.79,2287.37 909.331,2288.2 909.561,2289ZM1017.38,2284.01C1017.66,2283.04 1017.94,2282.08 1018.21,2281.11C1018.43,2280.31 1017.97,2279.48 1017.17,2279.26C1016.37,2279.04 1015.54,2279.5 1015.32,2280.3C1015.05,2281.26 1014.78,2282.22 1014.5,2283.18C1014.27,2283.97 1014.73,2284.8 1015.53,2285.03C1016.32,2285.26 1017.15,2284.8 1017.38,2284.01ZM907.122,2280.31C907.385,2281.28 907.651,2282.24 907.919,2283.21C908.141,2284.01 908.968,2284.48 909.766,2284.25C910.564,2284.03 911.031,2283.2 910.81,2282.41C910.543,2281.45 910.278,2280.49 910.016,2279.52C909.799,2278.72 908.974,2278.25 908.175,2278.47C907.376,2278.69 906.904,2279.51 907.122,2280.31ZM1019.79,2275.3C1020.05,2274.33 1020.3,2273.36 1020.55,2272.39C1020.75,2271.59 1020.27,2270.77 1019.47,2270.56C1018.67,2270.36 1017.85,2270.84 1017.64,2271.64C1017.4,2272.6 1017.14,2273.57 1016.89,2274.53C1016.68,2275.33 1017.16,2276.16 1017.96,2276.37C1018.76,2276.58 1019.58,2276.1 1019.79,2275.3ZM904.823,2271.58C905.07,2272.55 905.32,2273.52 905.573,2274.5C905.782,2275.3 906.602,2275.78 907.403,2275.57C908.204,2275.36 908.685,2274.54 908.476,2273.74C908.224,2272.77 907.976,2271.81 907.73,2270.84C907.526,2270.04 906.708,2269.55 905.906,2269.76C905.104,2269.96 904.618,2270.78 904.823,2271.58ZM1022,2266.54C1022.24,2265.56 1022.47,2264.59 1022.7,2263.61C1022.89,2262.81 1022.38,2262 1021.58,2261.81C1020.77,2261.62 1019.97,2262.12 1019.78,2262.93C1019.55,2263.9 1019.32,2264.87 1019.09,2265.84C1018.89,2266.64 1019.39,2267.45 1020.2,2267.65C1021,2267.84 1021.81,2267.35 1022,2266.54ZM902.671,2262.82C902.9,2263.79 903.134,2264.76 903.371,2265.74C903.566,2266.55 904.378,2267.04 905.182,2266.85C905.987,2266.65 906.482,2265.84 906.287,2265.04C906.051,2264.06 905.819,2263.09 905.591,2262.13C905.401,2261.32 904.592,2260.82 903.786,2261.01C902.981,2261.2 902.481,2262.01 902.671,2262.82ZM1024.02,2257.73C1024.23,2256.74 1024.44,2255.76 1024.64,2254.79C1024.81,2253.97 1024.29,2253.18 1023.48,2253.01C1022.67,2252.85 1021.87,2253.37 1021.7,2254.18C1021.5,2255.15 1021.3,2256.12 1021.09,2257.1C1020.91,2257.91 1021.43,2258.71 1022.24,2258.88C1023.05,2259.06 1023.84,2258.54 1024.02,2257.73ZM900.683,2254.01C900.892,2254.98 901.106,2255.96 901.326,2256.95C901.505,2257.76 902.307,2258.27 903.116,2258.09C903.924,2257.91 904.434,2257.11 904.254,2256.3C904.036,2255.32 903.824,2254.35 903.616,2253.38C903.442,2252.57 902.644,2252.05 901.834,2252.23C901.025,2252.4 900.509,2253.2 900.683,2254.01ZM1025.81,2248.87C1025.99,2247.87 1026.17,2246.88 1026.34,2245.9C1026.49,2245.09 1025.94,2244.31 1025.13,2244.17C1024.31,2244.02 1023.53,2244.57 1023.39,2245.38C1023.22,2246.35 1023.04,2247.33 1022.86,2248.32C1022.71,2249.13 1023.24,2249.92 1024.06,2250.07C1024.87,2250.22 1025.65,2249.68 1025.81,2248.87ZM898.89,2245.15C899.074,2246.13 899.265,2247.11 899.463,2248.11C899.624,2248.92 900.414,2249.45 901.226,2249.29C902.038,2249.13 902.567,2248.34 902.406,2247.53C902.21,2246.54 902.021,2245.56 901.838,2244.59C901.684,2243.78 900.899,2243.24 900.085,2243.4C899.272,2243.55 898.736,2244.34 898.89,2245.15ZM1027.32,2239.94C1027.47,2238.93 1027.61,2237.93 1027.74,2236.95C1027.85,2236.13 1027.28,2235.38 1026.45,2235.26C1025.63,2235.16 1024.88,2235.73 1024.77,2236.55C1024.64,2237.52 1024.5,2238.5 1024.35,2239.5C1024.23,2240.32 1024.79,2241.08 1025.61,2241.21C1026.43,2241.33 1027.19,2240.76 1027.32,2239.94ZM897.351,2236.23C897.502,2237.21 897.662,2238.2 897.831,2239.21C897.967,2240.03 898.741,2240.58 899.557,2240.45C900.374,2240.31 900.926,2239.53 900.789,2238.72C900.623,2237.72 900.465,2236.74 900.316,2235.78C900.19,2234.96 899.424,2234.4 898.605,2234.52C897.787,2234.65 897.225,2235.41 897.351,2236.23ZM1028.44,2230.93C1028.54,2229.89 1028.62,2228.88 1028.69,2227.91C1028.75,2227.08 1028.12,2226.36 1027.3,2226.31C1026.47,2226.25 1025.75,2226.87 1025.7,2227.7C1025.63,2228.65 1025.55,2229.64 1025.45,2230.65C1025.37,2231.47 1025.98,2232.21 1026.8,2232.29C1027.63,2232.36 1028.36,2231.76 1028.44,2230.93ZM896.188,2227.23C896.285,2228.2 896.396,2229.21 896.522,2230.24C896.621,2231.06 897.369,2231.65 898.191,2231.55C899.013,2231.45 899.599,2230.7 899.5,2229.88C899.377,2228.87 899.268,2227.89 899.173,2226.93C899.092,2226.11 898.356,2225.51 897.532,2225.59C896.709,2225.67 896.106,2226.4 896.188,2227.23ZM1028.89,2221.79C1028.88,2220.69 1028.84,2219.65 1028.77,2218.69C1028.7,2217.87 1027.98,2217.25 1027.15,2217.32C1026.33,2217.38 1025.71,2218.1 1025.77,2218.93C1025.85,2219.83 1025.88,2220.79 1025.89,2221.82C1025.9,2222.65 1026.58,2223.32 1027.41,2223.31C1028.24,2223.3 1028.9,2222.62 1028.89,2221.79ZM896.724,2217.84C896.512,2218.91 896.346,2219.93 896.228,2220.91C896.129,2221.74 896.716,2222.49 897.537,2222.58C898.359,2222.68 899.107,2222.1 899.206,2221.28C899.316,2220.37 899.47,2219.41 899.667,2218.43C899.828,2217.62 899.3,2216.83 898.488,2216.66C897.676,2216.5 896.886,2217.03 896.724,2217.84ZM1027.69,2212.54C1027.44,2211.58 1027.16,2210.59 1026.84,2209.57C1026.59,2208.78 1025.74,2208.35 1024.95,2208.6C1024.16,2208.85 1023.73,2209.69 1023.98,2210.48C1024.28,2211.44 1024.55,2212.37 1024.78,2213.28C1024.98,2214.08 1025.8,2214.57 1026.6,2214.36C1027.41,2214.16 1027.89,2213.34 1027.69,2212.54ZM899.243,2208.98C898.89,2209.96 898.564,2210.93 898.267,2211.88C898.019,2212.67 898.46,2213.51 899.25,2213.76C900.04,2214.01 900.882,2213.57 901.13,2212.78C901.415,2211.87 901.727,2210.94 902.066,2209.99C902.347,2209.21 901.941,2208.35 901.162,2208.07C900.383,2207.79 899.523,2208.2 899.243,2208.98ZM1024.69,2203.82C1024.3,2202.9 1023.87,2201.96 1023.42,2201.02C1023.06,2200.28 1022.16,2199.97 1021.42,2200.32C1020.67,2200.68 1020.36,2201.58 1020.72,2202.33C1021.15,2203.22 1021.56,2204.12 1021.93,2205C1022.26,2205.76 1023.14,2206.11 1023.9,2205.78C1024.66,2205.46 1025.02,2204.58 1024.69,2203.82ZM902.801,2200.55C902.353,2201.47 901.926,2202.39 901.52,2203.31C901.185,2204.07 901.527,2204.95 902.284,2205.29C903.041,2205.63 903.927,2205.28 904.263,2204.53C904.656,2203.64 905.069,2202.75 905.502,2201.85C905.862,2201.1 905.549,2200.21 904.804,2199.85C904.058,2199.49 903.161,2199.8 902.801,2200.55ZM1020.53,2195.62C1020.02,2194.76 1019.48,2193.89 1018.92,2193.02C1018.47,2192.33 1017.54,2192.13 1016.84,2192.58C1016.15,2193.03 1015.95,2193.96 1016.4,2194.65C1016.94,2195.49 1017.45,2196.32 1017.95,2197.15C1018.37,2197.86 1019.29,2198.1 1020,2197.68C1020.71,2197.26 1020.95,2196.34 1020.53,2195.62ZM907.155,2192.51C906.627,2193.39 906.115,2194.26 905.621,2195.14C905.215,2195.87 905.472,2196.78 906.193,2197.19C906.915,2197.59 907.83,2197.34 908.236,2196.61C908.715,2195.76 909.211,2194.91 909.723,2194.06C910.151,2193.35 909.923,2192.43 909.214,2192C908.505,2191.58 907.583,2191.8 907.155,2192.51ZM1015.37,2188.03C1014.75,2187.23 1014.11,2186.43 1013.45,2185.64C1012.92,2185.01 1011.97,2184.93 1011.34,2185.46C1010.7,2186 1010.62,2186.95 1011.15,2187.58C1011.79,2188.33 1012.41,2189.1 1013,2189.86C1013.51,2190.52 1014.45,2190.64 1015.11,2190.13C1015.76,2189.62 1015.88,2188.68 1015.37,2188.03ZM912.242,2184.92C911.635,2185.74 911.043,2186.56 910.465,2187.4C909.994,2188.08 910.163,2189.01 910.844,2189.48C911.524,2189.95 912.459,2189.79 912.931,2189.11C913.49,2188.3 914.063,2187.5 914.651,2186.71C915.144,2186.04 915.005,2185.1 914.341,2184.61C913.676,2184.12 912.736,2184.25 912.242,2184.92ZM1009.31,2181.13C1008.59,2180.42 1007.85,2179.71 1007.09,2179.01C1006.48,2178.45 1005.53,2178.49 1004.97,2179.1C1004.41,2179.71 1004.46,2180.66 1005.07,2181.22C1005.79,2181.89 1006.5,2182.57 1007.19,2183.25C1007.77,2183.84 1008.72,2183.84 1009.31,2183.25C1009.89,2182.67 1009.89,2181.72 1009.31,2181.13ZM918.079,2177.86C917.388,2178.61 916.711,2179.37 916.047,2180.15C915.508,2180.78 915.581,2181.72 916.21,2182.26C916.839,2182.8 917.786,2182.73 918.325,2182.1C918.964,2181.35 919.616,2180.62 920.281,2179.9C920.844,2179.29 920.806,2178.34 920.199,2177.78C919.591,2177.22 918.641,2177.26 918.079,2177.86ZM1002.4,2175.07C1001.6,2174.45 1000.77,2173.85 999.927,2173.26C999.248,2172.78 998.312,2172.95 997.838,2173.63C997.363,2174.3 997.529,2175.24 998.207,2175.72C999.015,2176.28 999.804,2176.86 1000.57,2177.45C1001.23,2177.95 1002.17,2177.83 1002.68,2177.17C1003.18,2176.52 1003.06,2175.57 1002.4,2175.07ZM924.727,2171.52C923.944,2172.17 923.174,2172.85 922.416,2173.54C921.805,2174.1 921.763,2175.05 922.322,2175.66C922.881,2176.27 923.83,2176.31 924.441,2175.75C925.165,2175.09 925.9,2174.45 926.648,2173.83C927.284,2173.3 927.37,2172.35 926.84,2171.71C926.31,2171.08 925.363,2170.99 924.727,2171.52ZM994.751,2169.97C993.873,2169.47 992.975,2168.98 992.059,2168.5C991.323,2168.12 990.418,2168.41 990.038,2169.15C989.657,2169.88 989.946,2170.79 990.681,2171.17C991.558,2171.62 992.416,2172.09 993.257,2172.57C993.975,2172.98 994.892,2172.74 995.305,2172.02C995.717,2171.3 995.469,2170.38 994.751,2169.97ZM932.268,2166.19C931.384,2166.7 930.511,2167.25 929.651,2167.83C928.963,2168.29 928.778,2169.22 929.238,2169.91C929.699,2170.6 930.631,2170.78 931.319,2170.32C932.13,2169.78 932.952,2169.26 933.785,2168.78C934.499,2168.36 934.739,2167.44 934.32,2166.72C933.902,2166.01 932.982,2165.77 932.268,2166.19ZM986.494,2165.93C985.558,2165.55 984.605,2165.18 983.634,2164.83C982.855,2164.55 981.995,2164.95 981.715,2165.73C981.434,2166.51 981.838,2167.37 982.617,2167.65C983.547,2167.99 984.46,2168.34 985.356,2168.71C986.122,2169.02 986.999,2168.65 987.313,2167.89C987.627,2167.12 987.26,2166.24 986.494,2165.93ZM940.724,2162.32C939.741,2162.64 938.769,2163.01 937.808,2163.41C937.044,2163.73 936.683,2164.61 937.002,2165.37C937.321,2166.14 938.2,2166.5 938.964,2166.18C939.855,2165.81 940.756,2165.47 941.667,2165.17C942.453,2164.91 942.879,2164.06 942.619,2163.27C942.359,2162.49 941.51,2162.06 940.724,2162.32ZM977.79,2163C976.815,2162.74 975.825,2162.49 974.818,2162.27C974.011,2162.09 973.207,2162.59 973.026,2163.4C972.844,2164.21 973.352,2165.01 974.16,2165.19C975.126,2165.41 976.078,2165.65 977.013,2165.9C977.813,2166.11 978.636,2165.64 978.851,2164.84C979.065,2164.04 978.59,2163.21 977.79,2163ZM968.804,2161.16C967.808,2161.02 966.797,2160.89 965.772,2160.78C964.949,2160.69 964.209,2161.29 964.122,2162.11C964.034,2162.94 964.631,2163.68 965.454,2163.76C966.441,2163.87 967.415,2163.99 968.375,2164.13C969.195,2164.25 969.956,2163.68 970.074,2162.86C970.193,2162.04 969.623,2161.28 968.804,2161.16ZM949.902,2160.5L950.545,2160.46C951.371,2160.41 952.082,2161.05 952.131,2161.87C952.18,2162.7 951.549,2163.41 950.722,2163.46L950.098,2163.5C949.14,2163.56 948.19,2163.66 947.249,2163.81C946.431,2163.94 945.664,2163.38 945.537,2162.56C945.41,2161.74 945.971,2160.97 946.789,2160.85C947.817,2160.69 948.855,2160.57 949.902,2160.5ZM959.684,2160.35C958.68,2160.31 957.664,2160.29 956.635,2160.29C955.807,2160.29 955.133,2160.96 955.13,2161.78C955.128,2162.61 955.798,2163.29 956.626,2163.29C957.621,2163.29 958.604,2163.31 959.575,2163.35C960.402,2163.38 961.098,2162.73 961.128,2161.9C961.158,2161.07 960.511,2160.38 959.684,2160.35Z" style="fill:rgb(187,102,150);"/>
    </g>
    <path d="M105.189,254.997C99.359,224.872 103.343,204.637 110.153,191.176C120.824,170.084 138.561,165.253 138.561,165.253C139.891,164.883 141.27,165.662 141.64,166.991C142.01,168.321 141.231,169.7 139.902,170.07C139.902,170.07 124.167,174.552 114.615,193.433C108.137,206.237 104.551,225.505 110.124,254.176C111.735,255.005 114.676,256.698 117.346,259.186C120.134,261.783 122.584,265.227 123.21,269.374C123.416,270.739 122.476,272.014 121.111,272.22C119.747,272.425 118.472,271.485 118.266,270.121C117.815,267.134 115.946,264.715 113.938,262.844C113.719,262.64 113.497,262.442 113.275,262.251L119.539,276.375C120.098,277.636 119.528,279.114 118.267,279.674C117.006,280.233 115.527,279.663 114.968,278.402L111.547,270.688L112.371,279.361C112.501,280.734 111.492,281.955 110.118,282.086C108.744,282.216 107.523,281.207 107.393,279.833L106.358,268.929L104.634,274.876C104.25,276.201 102.863,276.965 101.537,276.581C100.212,276.197 99.448,274.809 99.832,273.484L105.189,254.997Z" style="fill:rgb(5,46,61);"/>
    <path d="M233.316,261.653C233.095,261.846 232.876,262.046 232.658,262.252C230.665,264.139 228.815,266.573 228.388,269.563C228.193,270.929 226.926,271.879 225.56,271.684C224.194,271.489 223.243,270.222 223.438,268.856C224.031,264.704 226.453,261.241 229.221,258.621C231.872,256.111 234.801,254.394 236.405,253.553C243.289,217.24 241.358,196.209 237.584,184.239C234.117,173.24 229.255,170.517 229.255,170.517L229.255,170.517C228.024,169.894 227.531,168.388 228.154,167.157C228.778,165.926 230.283,165.433 231.514,166.056C231.514,166.056 238.056,169.106 242.353,182.736C246.253,195.109 248.437,216.841 241.345,254.341L246.849,272.779C247.243,274.101 246.49,275.495 245.168,275.889C243.846,276.284 242.452,275.531 242.057,274.209L240.287,268.276L239.338,279.188C239.219,280.563 238.006,281.582 236.631,281.463C235.257,281.343 234.238,280.13 234.357,278.756L235.111,270.076L231.752,277.818C231.203,279.083 229.729,279.665 228.464,279.116C227.198,278.567 226.616,277.093 227.165,275.827L233.316,261.653Z" style="fill:rgb(5,46,61);"/>
    <g transform="matrix(0.620187,0,0,1,-421.519,-2091.92)">
        <path d="M924,2232.5L952.962,2232.5C955.186,2232.5 956.993,2231.38 956.993,2230C956.993,2228.62 955.186,2227.5 952.962,2227.5L924,2227.5C921.775,2227.5 919.969,2228.62 919.969,2230C919.969,2231.38 921.775,2232.5 924,2232.5Z" style="fill:white;"/>
    </g>
    <g transform="matrix(0.620187,0,0,1,-388.31,-2091.92)">
        <path d="M924,2232.5L952.962,2232.5C955.186,2232.5 956.993,2231.38 956.993,2230C956.993,2228.62 955.186,2227.5 952.962,2227.5L924,2227.5C921.775,2227.5 919.969,2228.62 919.969,2230C919.969,2231.38 921.775,2232.5 924,2232.5Z" style="fill:white;"/>
    </g>
</svg>
