<?xml version="1.0" encoding="UTF-8" standalone="no"?>
<!DOCTYPE svg PUBLIC "-//W3C//DTD SVG 1.1//EN" "http://www.w3.org/Graphics/SVG/1.1/DTD/svg11.dtd">
<svg width="100%" height="100%" viewBox="0 0 350 350" version="1.1" xmlns="http://www.w3.org/2000/svg" xmlns:xlink="http://www.w3.org/1999/xlink" xml:space="preserve" xmlns:serif="http://www.serif.com/" style="fill-rule:evenodd;clip-rule:evenodd;stroke-linecap:round;stroke-linejoin:round;stroke-miterlimit:1.5;">
    <g transform="matrix(1,0,0,1,874.347,-2212.96)">
        <path d="M-694.392,2472.76C-694.392,2472.76 -688.464,2491.76 -665.789,2503.93C-651,2511.87 -628.972,2516.96 -596.589,2511.57C-595.228,2511.34 -594.307,2510.05 -594.534,2508.69C-594.761,2507.33 -596.05,2506.41 -597.411,2506.63C-628.293,2511.78 -649.32,2507.1 -663.424,2499.53C-684.086,2488.44 -689.625,2471.24 -689.625,2471.24C-690.042,2469.93 -691.448,2469.2 -692.764,2469.62C-694.079,2470.03 -694.808,2471.44 -694.392,2472.76Z" style="fill:rgb(60,117,109);"/>
    </g>
    <g transform="matrix(1,0,0,1,693.657,-2106.3)">
        <path d="M-527,2209C-579.628,2207.98 -621.486,2282.12 -621,2324C-620.604,2358.08 -603,2399.73 -566.098,2409.57C-539.134,2416.76 -488.18,2423.12 -463,2403C-429.535,2376.26 -443.457,2310.83 -499,2313C-499,2313 -436.189,2210.76 -527,2209Z" style="fill:rgb(69,52,78);"/>
    </g>
    <g transform="matrix(1.57364,0,0,1.57364,1296.25,-3523.9)">
        <path d="M-708,2337.5C-708,2341.09 -705.09,2344 -701.5,2344C-697.91,2344 -695,2341.09 -695,2337.5L-701.5,2337.5L-708,2337.5Z" style="fill:white;"/>
    </g>
    <g transform="matrix(1.11466,0,0,1.57364,979.288,-3517.61)">
        <path d="M-694,2333L-718,2333" style="fill:none;stroke:white;stroke-width:2.2px;"/>
    </g>
    <g transform="matrix(1.57364,0,0,1.57364,1254.42,-3523.9)">
        <path d="M-708,2337.5C-708,2341.09 -705.09,2344 -701.5,2344C-697.91,2344 -695,2341.09 -695,2337.5L-701.5,2337.5L-708,2337.5Z" style="fill:white;"/>
    </g>
    <g transform="matrix(1.11466,0,0,1.57364,937.459,-3517.61)">
        <path d="M-694,2332.05L-718,2332.05C-718.743,2332.05 -719.346,2332.47 -719.346,2333C-719.346,2333.53 -718.743,2333.95 -718,2333.95L-694,2333.95C-693.257,2333.95 -692.654,2333.53 -692.654,2333C-692.654,2332.47 -693.257,2332.05 -694,2332.05Z" style="fill:white;"/>
    </g>
    <g transform="matrix(1,0,0,1,852.657,-2191.3)">
        <path d="M-732.763,2385.23C-732.763,2385.23 -753.667,2406.02 -767.043,2431.85C-776.169,2449.47 -781.695,2469.42 -775.349,2486.86C-765.302,2514.46 -731.769,2511.49 -731.769,2511.49C-730.395,2511.36 -729.383,2510.14 -729.511,2508.77C-729.638,2507.39 -730.857,2506.38 -732.231,2506.51C-732.231,2506.51 -761.827,2509.39 -770.651,2485.14C-776.54,2468.96 -771.072,2450.51 -762.602,2434.15C-749.584,2409.01 -729.237,2388.77 -729.237,2388.77C-728.259,2387.8 -728.254,2386.22 -729.227,2385.24C-730.2,2384.26 -731.785,2384.25 -732.763,2385.23Z" style="fill:rgb(60,117,109);"/>
    </g>
    <g transform="matrix(1,0,0,1,852.657,-2191.3)">
        <path d="M-694.392,2472.76C-694.392,2472.76 -688.464,2491.76 -665.789,2503.93C-651,2511.87 -628.972,2516.96 -596.589,2511.57C-595.228,2511.34 -594.307,2510.05 -594.534,2508.69C-594.761,2507.33 -596.05,2506.41 -597.411,2506.63C-628.293,2511.78 -649.32,2507.1 -663.424,2499.53C-684.086,2488.44 -689.625,2471.24 -689.625,2471.24C-690.042,2469.93 -691.448,2469.2 -692.764,2469.62C-694.079,2470.03 -694.808,2471.44 -694.392,2472.76Z" style="fill:rgb(60,117,109);"/>
    </g>
    <g transform="matrix(90,0,0,90,100.014,92.6366)">
        <path d="M0.339,-0.118L0.324,-0L0.005,-0L0.005,-0.006L0.175,-0.578L0.019,-0.578L0.034,-0.696L0.338,-0.696L0.338,-0.689L0.174,-0.118L0.339,-0.118Z" style="fill:rgb(138,118,11);fill-rule:nonzero;"/>
    </g>
    <g transform="matrix(54.0805,0,0,54.0805,137.152,92.6366)">
        <path d="M0.339,-0.118L0.324,-0L0.005,-0L0.005,-0.006L0.175,-0.578L0.019,-0.578L0.034,-0.696L0.338,-0.696L0.338,-0.689L0.174,-0.118L0.339,-0.118Z" style="fill:rgb(138,118,11);fill-rule:nonzero;"/>
    </g>
    <g transform="matrix(38.2759,0,0,38.2759,163.831,92.6366)">
        <path d="M0.339,-0.118L0.324,-0L0.005,-0L0.005,-0.006L0.175,-0.578L0.019,-0.578L0.034,-0.696L0.338,-0.696L0.338,-0.689L0.174,-0.118L0.339,-0.118Z" style="fill:rgb(138,118,11);fill-rule:nonzero;"/>
    </g>
</svg>
