<?xml version="1.0" encoding="UTF-8" standalone="no"?>
<!DOCTYPE svg PUBLIC "-//W3C//DTD SVG 1.1//EN" "http://www.w3.org/Graphics/SVG/1.1/DTD/svg11.dtd">
<svg width="100%" height="100%" viewBox="0 0 350 350" version="1.1" xmlns="http://www.w3.org/2000/svg" xmlns:xlink="http://www.w3.org/1999/xlink" xml:space="preserve" xmlns:serif="http://www.serif.com/" style="fill-rule:evenodd;clip-rule:evenodd;stroke-linejoin:round;stroke-miterlimit:2;">
    <g transform="matrix(0.980512,0.196461,-0.196461,0.980512,-1506.3,-2488.02)">
        <path d="M2223.41,2370.76L2191.72,2342.88C2190.68,2341.97 2190.58,2340.39 2191.49,2339.35C2192.4,2338.31 2193.98,2338.21 2195.02,2339.12L2227.65,2367.83C2228.24,2368.35 2228.55,2369.12 2228.49,2369.91L2225.67,2405.32C2227.55,2405.69 2230.53,2406.18 2233.69,2406.33C2236.94,2406.47 2240.4,2406.31 2242.88,2405.07C2244.11,2404.45 2245.62,2404.95 2246.24,2406.18C2246.85,2407.41 2246.35,2408.92 2245.12,2409.53C2241.97,2411.11 2237.59,2411.51 2233.46,2411.32C2227.65,2411.05 2222.39,2409.72 2222.39,2409.72C2221.21,2409.43 2220.41,2408.32 2220.51,2407.1L2223.41,2370.76Z" style="fill:rgb(255,118,11);"/>
    </g>
    <g transform="matrix(0.708457,0.345429,-0.345429,0.708457,-565.048,-2191.81)">
        <path d="M2268,2189.99C2215.62,2159.78 2130.19,2257.78 2119,2304C2102.46,2372.34 2169.76,2427.56 2210,2382C2250.24,2336.44 2223.74,2316.36 2253,2293.76C2285.65,2268.53 2330.79,2226.2 2268,2189.99Z" style="fill:rgb(108,93,155);"/>
    </g>
    <g transform="matrix(1,0,0,1,-1326.18,-2098.73)">
        <path d="M1428,2293.25C1437.51,2304.23 1458.57,2293.25 1458.57,2293.25L1399.16,2185.1C1399.16,2185.1 1411.8,2274.53 1428,2293.25Z" style="fill:rgb(142,140,160);"/>
    </g>
    <g transform="matrix(1,0,0,1,-1326.18,-2098.73)">
        <path d="M1426.46,2152.63C1426.37,2154.41 1427.34,2156.97 1428.35,2159.5C1430.26,2164.28 1432.79,2168.8 1432.79,2168.8C1434.01,2170.97 1433.23,2173.71 1431.07,2174.93C1428.9,2176.14 1426.15,2175.37 1424.94,2173.2C1424.94,2173.2 1421.08,2166.3 1418.97,2160.08C1417.88,2156.86 1417.3,2153.76 1417.52,2151.56C1417.71,2149.69 1418.74,2147.47 1420.8,2145.29C1423.94,2141.95 1429.86,2138.22 1436.23,2135.42C1442.65,2132.61 1449.51,2130.77 1454.31,2130.88C1457.33,2130.96 1459.74,2131.78 1461.38,2133.1C1472.17,2141.73 1476.21,2147.35 1476.21,2147.35C1477.67,2149.35 1477.23,2152.17 1475.23,2153.64C1473.22,2155.1 1470.4,2154.66 1468.94,2152.65C1468.94,2152.65 1465.3,2147.76 1455.76,2140.13C1455.53,2139.95 1455.18,2139.97 1454.79,2139.93C1454.14,2139.86 1453.42,2139.87 1452.64,2139.93C1448.95,2140.24 1444.28,2141.72 1439.85,2143.66C1435.38,2145.62 1431.13,2148.07 1428.4,2150.46C1427.57,2151.18 1426.64,2152.4 1426.46,2152.63Z" style="fill:rgb(91,91,77);"/>
    </g>
    <g transform="matrix(0.980437,0.196831,-0.196831,0.980437,-852.532,-2364.43)">
        <path d="M1469.34,2315.03C1469.34,2315.03 1540.13,2248.03 1554.49,2233.53C1568.85,2219.04 1476.56,2153.82 1476.56,2153.82L1389.8,2220.69L1469.34,2315.03Z" style="fill:rgb(205,204,213);"/>
    </g>
    <g transform="matrix(1,0,0,1,-1326.18,-2098.73)">
        <path d="M1526,2173L1424.62,2229.59C1415.43,2202.62 1400.32,2187.36 1400.32,2187.36L1399.16,2185.1L1497,2136.62C1497,2136.62 1521.69,2147.59 1526,2173Z" style="fill:rgb(91,91,77);"/>
    </g>
    <g transform="matrix(1,0,0,1,-1326.18,-2098.73)">
        <clipPath id="_clip1">
            <path d="M1526,2173L1424.62,2229.59C1415.43,2202.62 1400.32,2187.36 1400.32,2187.36L1399.16,2185.1L1497,2136.62C1497,2136.62 1521.69,2147.59 1526,2173Z"/>
        </clipPath>
        <g clip-path="url(#_clip1)">
            <path d="M1461,2190L1444.83,2161.67L1457.57,2156L1479.84,2179L1461,2190Z" style="fill:rgb(205,204,213);"/>
        </g>
    </g>
    <g transform="matrix(1,0,0,1,-1325.85,-2101.23)">
        <ellipse cx="1463" cy="2175.5" rx="3" ry="2.5" style="fill:rgb(91,91,77);"/>
    </g>
    <g transform="matrix(1,0,0,1,-1326.18,-2098.73)">
        <path d="M1466.34,2181L1470,2179L1465,2173L1462.34,2173L1466.34,2181Z" style="fill:rgb(91,91,77);"/>
    </g>
    <g transform="matrix(0.856861,0.515547,-0.515547,0.856861,-540.714,-2899.33)">
        <path d="M2219.1,2253.04C2219.1,2253.04 2193.24,2232.57 2171.76,2221.75C2166.07,2218.88 2160.68,2216.69 2156.12,2215.67C2152.75,2214.91 2149.79,2214.8 2147.41,2215.38C2139.98,2217.2 2133.62,2222.84 2128.72,2229.07C2121.67,2238.04 2117.68,2248.07 2117.68,2248.07C2117.17,2249.36 2117.79,2250.81 2119.07,2251.32C2120.36,2251.83 2121.81,2251.21 2122.32,2249.93C2122.32,2249.93 2126.06,2240.55 2132.66,2232.16C2136.86,2226.81 2142.22,2221.8 2148.59,2220.24C2150.35,2219.81 2152.54,2219.99 2155.03,2220.55C2159.25,2221.5 2164.24,2223.56 2169.51,2226.21C2190.61,2236.84 2215.99,2256.96 2215.99,2256.96C2217.07,2257.82 2218.65,2257.63 2219.5,2256.55C2220.36,2255.47 2220.18,2253.9 2219.1,2253.04Z" style="fill:rgb(255,118,11);"/>
    </g>
    <g transform="matrix(0.980512,0.196461,-0.196461,0.980512,-1506.3,-2488.02)">
        <path d="M2182.04,2389.54L2162.72,2347.03C2162.15,2345.78 2162.71,2344.3 2163.97,2343.72C2165.22,2343.15 2166.7,2343.71 2167.28,2344.97L2187.28,2388.97C2187.69,2389.87 2187.52,2390.94 2186.85,2391.68L2159.79,2421.54C2162.14,2423.06 2165.87,2425.33 2169.15,2426.68C2170.16,2427.1 2171.12,2427.43 2171.97,2427.59C2172.43,2427.68 2172.82,2427.77 2173.12,2427.66C2174.41,2427.17 2175.85,2427.83 2176.34,2429.12C2176.83,2430.41 2176.17,2431.85 2174.88,2432.34C2173.18,2432.98 2170.34,2432.58 2167.25,2431.3C2161.53,2428.94 2154.56,2424.04 2154.56,2424.04C2153.97,2423.63 2153.59,2422.99 2153.51,2422.28C2153.44,2421.56 2153.67,2420.85 2154.15,2420.32L2182.04,2389.54Z" style="fill:rgb(255,118,11);"/>
    </g>
    <g transform="matrix(0.859714,0.510775,-0.510775,0.859714,-525.652,-2932.46)">
        <ellipse cx="2253" cy="2266.15" rx="9" ry="3.852" style="fill:white;"/>
    </g>
    <g transform="matrix(0.859714,0.510775,-0.510775,0.859714,-506.167,-2920.89)">
        <ellipse cx="2253" cy="2266.15" rx="9" ry="3.852" style="fill:white;"/>
    </g>
    <g transform="matrix(0.980512,0.196461,-0.196461,0.980512,-1506.3,-2488.02)">
        <path d="M2218.68,2239C2218.68,2239 2203.86,2264.58 2218.68,2264.58C2233.51,2264.58 2218.68,2239 2218.68,2239Z" style="fill:white;"/>
    </g>
</svg>
