<?xml version="1.0" encoding="UTF-8" standalone="no"?>
<!DOCTYPE svg PUBLIC "-//W3C//DTD SVG 1.1//EN" "http://www.w3.org/Graphics/SVG/1.1/DTD/svg11.dtd">
<svg width="100%" height="100%" viewBox="0 0 350 350" version="1.1" xmlns="http://www.w3.org/2000/svg" xmlns:xlink="http://www.w3.org/1999/xlink" xml:space="preserve" xmlns:serif="http://www.serif.com/" style="fill-rule:evenodd;clip-rule:evenodd;stroke-linejoin:round;stroke-miterlimit:2;">
    <g transform="matrix(-0.880442,0.165787,0.165787,0.880442,228.371,316.875)">
        <path d="M31.863,-247.426C77.534,-240.571 98.051,-168.086 92.585,-115.35C87.118,-62.616 62.161,-33.002 10.99,-58.04C-40.182,-83.079 -45.228,-125.246 -40.316,-149.432C-29.274,-203.801 -12.531,-254.089 31.863,-247.426" style="fill:rgb(11,78,157);fill-rule:nonzero;"/>
    </g>
    <g transform="matrix(2.22532,-0.297184,0.164876,1.2346,-984.906,-1758.11)">
        <path d="M408.737,1598.42L411.565,1612.85L386.519,1612.85L389.347,1598.42L408.737,1598.42Z" style="fill:rgb(198,229,144);"/>
    </g>
    <g transform="matrix(2.22532,-0.297184,0.164876,1.2346,-984.906,-1758.11)">
        <path d="M406.92,1589.15L391.165,1589.15L393.65,1576.47L404.435,1576.47L406.92,1589.15Z" style="fill:rgb(198,229,144);"/>
    </g>
    <g transform="matrix(1.2346,-0.164876,0.164876,1.2346,-577.158,-1812.57)">
        <path d="M398.713,1576.47L379.273,1576.47L382.549,1567.19L395.437,1567.19L398.713,1576.47Z" style="fill:rgb(255,241,225);"/>
    </g>
    <g transform="matrix(1.2346,-0.164876,0.164876,1.2346,-577.158,-1812.57)">
        <path d="M406.468,1598.42L371.518,1598.42L374.795,1589.15L403.191,1589.15L406.468,1598.42Z" style="fill:rgb(255,241,225);"/>
    </g>
    <g transform="matrix(2.22532,-0.297184,0.164876,1.2346,-984.906,-1758.11)">
        <path d="M402.617,1567.19L395.467,1567.19L399.042,1548.95L402.617,1567.19Z" style="fill:rgb(198,229,144);"/>
    </g>
    <g transform="matrix(0.938452,-0.125327,0.125327,0.938452,-417.111,-1357.95)">
        <path d="M405.436,1531.82C405.436,1530.54 406.474,1529.5 407.752,1529.5C409.031,1529.5 410.068,1530.54 410.068,1531.82C410.707,1530.71 412.125,1530.33 413.232,1530.97C414.339,1531.61 414.719,1533.03 414.08,1534.14C415.187,1533.5 416.604,1533.88 417.244,1534.98C417.883,1536.09 417.503,1537.51 416.396,1538.15C417.674,1538.15 418.712,1539.18 418.712,1540.46C418.712,1541.74 417.674,1542.78 416.396,1542.78C417.503,1543.42 417.883,1544.84 417.244,1545.94C416.604,1547.05 415.187,1547.43 414.08,1546.79C414.719,1547.9 414.339,1549.32 413.232,1549.95C412.125,1550.59 410.707,1550.21 410.068,1549.11C410.068,1550.38 409.031,1551.42 407.752,1551.42C406.474,1551.42 405.436,1550.38 405.436,1549.11C404.797,1550.21 403.38,1550.59 402.273,1549.95C401.166,1549.32 400.786,1547.9 401.425,1546.79C400.318,1547.43 398.9,1547.05 398.261,1545.94C397.622,1544.84 398.002,1543.42 399.109,1542.78C397.831,1542.78 396.793,1541.74 396.793,1540.46C396.793,1539.18 397.831,1538.15 399.109,1538.15C398.002,1537.51 397.622,1536.09 398.261,1534.98C398.9,1533.88 400.318,1533.5 401.425,1534.14C400.786,1533.03 401.166,1531.61 402.273,1530.97C403.38,1530.33 404.797,1530.71 405.436,1531.82Z" style="fill:rgb(255,241,225);"/>
    </g>
    <g transform="matrix(1.24556,0,0,1.24556,-292.728,-1746.17)">
        <rect x="348.808" y="1506.28" width="63.797" height="3.613"/>
    </g>
    <g transform="matrix(1.88029,0,0,2.05332,-482.475,-2953.18)">
        <path d="M368.647,1502.55L370.36,1502.55C370.36,1502.55 370.36,1509.92 370.36,1512.88C370.36,1513.21 370.22,1513.52 369.972,1513.74C369.723,1513.97 369.386,1514.1 369.035,1514.1L368.647,1514.1L368.647,1502.55Z"/>
    </g>
    <g transform="matrix(1.88029,0,0,2.05332,-482.475,-2953.18)">
        <path d="M362.532,1502.55L362.532,1514.1L356.765,1514.1C356.413,1514.1 356.076,1513.97 355.828,1513.74C355.579,1513.52 355.44,1513.21 355.44,1512.88L355.44,1502.55L362.532,1502.55Z"/>
    </g>
    <g transform="matrix(1.24556,0,0,1.24556,-256.295,-1746.17)">
        <rect x="365.688" y="1507.92" width="9.232" height="19.036" style="fill:white;"/>
    </g>
    <g transform="matrix(1.88029,0,0,2.05332,-518.908,-2953.18)">
        <path d="M368.647,1502.55L370.36,1502.55C370.36,1502.55 370.36,1509.92 370.36,1512.88C370.36,1513.21 370.22,1513.52 369.972,1513.74C369.723,1513.97 369.386,1514.1 369.035,1514.1L368.647,1514.1L368.647,1502.55Z"/>
    </g>
    <g transform="matrix(1.88029,0,0,2.05332,-518.908,-2953.18)">
        <path d="M362.532,1502.55L362.532,1514.1L356.765,1514.1C356.413,1514.1 356.076,1513.97 355.828,1513.74C355.579,1513.52 355.44,1513.21 355.44,1512.88L355.44,1502.55L362.532,1502.55Z"/>
    </g>
    <g transform="matrix(1.24556,0,0,1.24556,-292.728,-1746.17)">
        <rect x="365.688" y="1507.92" width="9.232" height="19.036" style="fill:white;"/>
    </g>
    <g transform="matrix(1.24556,0,0,1.24556,-316.367,-1894.35)">
        <path d="M441.996,1555.03L451.343,1567.05L441.996,1579.07L432.648,1567.05L441.996,1555.03Z" style="fill:rgb(255,216,117);"/>
    </g>
    <g transform="matrix(1.24556,0,0,1.24556,-444.194,-1692.71)">
        <path d="M441.996,1555.03L451.343,1567.05L441.996,1579.07L432.648,1567.05L441.996,1555.03Z" style="fill:rgb(255,216,117);"/>
    </g>
    <g transform="matrix(0.7215,0,0,0.7215,-90.2138,-1043.83)">
        <path d="M441.996,1555.03L451.343,1567.05L441.996,1579.07L432.648,1567.05L441.996,1555.03Z" style="fill:rgb(255,216,117);"/>
    </g>
    <g transform="matrix(0.7215,0,0,0.7215,-106.101,-1093.13)">
        <path d="M441.996,1555.03L451.343,1567.05L441.996,1579.07L432.648,1567.05L441.996,1555.03Z" style="fill:rgb(255,216,117);"/>
    </g>
    <g transform="matrix(0.7215,0,0,0.7215,-197.228,-843.822)">
        <path d="M441.996,1555.03L451.343,1567.05L441.996,1579.07L432.648,1567.05L441.996,1555.03Z" style="fill:rgb(255,216,117);"/>
    </g>
    <g transform="matrix(1.24556,0,0,1.24556,-324.032,-1935.94)">
        <path d="M410.376,1802.33L429.104,1803.77C430.429,1803.87 431.422,1805.03 431.32,1806.35C431.218,1807.68 430.059,1808.67 428.734,1808.57L407.931,1806.97C406.739,1806.88 405.794,1805.92 405.713,1804.73L403.713,1775.53C403.622,1774.21 404.625,1773.06 405.951,1772.96C407.277,1772.87 408.428,1773.88 408.519,1775.2L410.376,1802.33Z" style="fill:rgb(255,207,153);"/>
    </g>
    <g transform="matrix(1.24556,0,0,1.24556,-305.598,-1935.95)">
        <path d="M378.507,1803.5L378.507,1776.57C378.507,1775.24 379.586,1774.16 380.916,1774.16C382.245,1774.16 383.324,1775.24 383.324,1776.57L383.324,1804.97C383.324,1805.87 382.817,1806.7 382.012,1807.11L364.012,1816.31C362.828,1816.92 361.376,1816.45 360.771,1815.26C360.166,1814.08 360.636,1812.63 361.82,1812.02L378.507,1803.5Z" style="fill:rgb(255,207,153);"/>
    </g>
</svg>
