<?xml version="1.0" encoding="UTF-8" standalone="no"?>
<!DOCTYPE svg PUBLIC "-//W3C//DTD SVG 1.1//EN" "http://www.w3.org/Graphics/SVG/1.1/DTD/svg11.dtd">
<svg width="100%" height="100%" viewBox="0 0 350 350" version="1.1" xmlns="http://www.w3.org/2000/svg" xmlns:xlink="http://www.w3.org/1999/xlink" xml:space="preserve" xmlns:serif="http://www.serif.com/" style="fill-rule:evenodd;clip-rule:evenodd;stroke-linejoin:round;stroke-miterlimit:2;">
    <g transform="matrix(1,0,0,1,-1304.18,-1484.5)">
        <path d="M1450.08,1540.42L1450.08,1641.91L1618.63,1690.53L1618.63,1539.23L1450.08,1540.42Z" style="fill:rgb(41,41,41);"/>
    </g>
    <g transform="matrix(0.808519,0,0,0.808519,-1019.6,-1176.83)">
        <path d="M1478.41,1608.65L1493.95,1634.96C1494.99,1636.72 1497.27,1637.31 1499.03,1636.26C1500.79,1635.22 1501.38,1632.95 1500.34,1631.18L1484.8,1604.87C1483.75,1603.11 1481.48,1602.52 1479.71,1603.57C1477.95,1604.61 1477.36,1606.88 1478.41,1608.65Z" style="fill:rgb(255,0,0);"/>
    </g>
    <g transform="matrix(0.808519,0,0,-0.808519,-1019.6,1442.64)">
        <path d="M1484.8,1604.87L1500.34,1631.18C1501.38,1632.95 1500.79,1635.22 1499.03,1636.26C1497.27,1637.31 1494.99,1636.72 1493.95,1634.96L1478.41,1608.65C1477.36,1606.88 1477.95,1604.61 1479.71,1603.57C1481.48,1602.52 1483.75,1603.11 1484.8,1604.87Z" style="fill:rgb(255,0,0);"/>
    </g>
    <g transform="matrix(1,0,0,1,-1304.18,-1484.5)">
        <path d="M1572.26,1638.32L1579.64,1630.7C1580.79,1629.51 1582.69,1629.48 1583.88,1630.63C1585.07,1631.79 1585.1,1633.69 1583.95,1634.88L1573.92,1645.24C1573.28,1645.9 1572.37,1646.23 1571.45,1646.13C1570.54,1646.04 1569.71,1645.53 1569.22,1644.75L1555.47,1622.92C1554.59,1621.52 1555.01,1619.66 1556.41,1618.78C1557.81,1617.9 1559.66,1618.32 1560.55,1619.72L1572.26,1638.32Z" style="fill:rgb(20,166,25);"/>
    </g>
    <g transform="matrix(0.734988,0,0,1,-854.485,-1480.69)">
        <circle cx="1515.81" cy="1573.51" r="6.973" style="fill:rgb(217,217,217);"/>
    </g>
    <g transform="matrix(0.644531,0,0,0.876927,-795.673,-1298.74)">
        <circle cx="1515.81" cy="1573.51" r="6.973" style="fill:rgb(217,217,217);"/>
    </g>
    <g transform="matrix(0.734988,0,0,1,-860.591,-1480.69)">
        <circle cx="1546.07" cy="1573.51" r="6.973" style="fill:rgb(217,217,217);"/>
    </g>
    <g transform="matrix(0.644531,0,0,0.876927,-801.027,-1298.74)">
        <circle cx="1546.07" cy="1573.51" r="6.973" style="fill:rgb(217,217,217);"/>
    </g>
    <g transform="matrix(1,0,0,1,-1305.29,-1493.45)">
        <path d="M1552.27,1606.38C1552.27,1606.38 1571.53,1625.36 1592.66,1607.96C1593.94,1606.9 1594.12,1605.01 1593.07,1603.73C1592.02,1602.46 1590.13,1602.27 1588.85,1603.33C1571.92,1617.27 1556.47,1602.1 1556.47,1602.1C1555.29,1600.94 1553.39,1600.96 1552.23,1602.14C1551.07,1603.32 1551.09,1605.22 1552.27,1606.38Z" style="fill:rgb(230,230,230);"/>
    </g>
    <g transform="matrix(-0.874524,-0.0648651,0.0648651,-0.874524,1458.95,1608.85)">
        <path d="M1551.97,1606.68C1551.97,1606.68 1571.51,1625.93 1592.93,1608.28C1594.39,1607.08 1594.6,1604.92 1593.4,1603.47C1592.2,1602.01 1590.04,1601.8 1588.58,1603C1571.94,1616.7 1556.77,1601.8 1556.77,1601.8C1555.42,1600.48 1553.26,1600.5 1551.93,1601.84C1550.61,1603.19 1550.62,1605.36 1551.97,1606.68Z" style="fill:rgb(230,230,230);"/>
    </g>
    <g transform="matrix(-0.636872,1.15044,1.15044,0.636872,71.6436,239.636)">
        <path d="M0.859,-11.402C-4.962,-12.227 -18.722,-14.156 -20.97,-14.292C-22.435,-14.381 -23.103,-13.554 -23.202,-13.43C-23.828,-12.644 -23.964,-11.766 -23.348,-10.787C-23.248,-10.627 -22.931,-10.067 -21.984,-9.776C-21.624,-9.665 -21.257,-9.648 -20.91,-9.711C-17.058,-9.371 2.807,-6.516 2.807,-6.516C3.46,-6.423 4.122,-6.617 4.622,-7.048C5.122,-7.48 5.41,-8.106 5.412,-8.766L5.491,-29.589C5.495,-30.848 4.477,-31.874 3.218,-31.879C1.959,-31.884 0.932,-30.865 0.928,-29.606L0.859,-11.402ZM-20.41,-14.051C-20.299,-14.004 -20.201,-13.952 -20.115,-13.898C-20.208,-13.956 -20.307,-14.007 -20.41,-14.051ZM-20.495,-14.087L-20.445,-14.066L-20.517,-14.094L-20.495,-14.087Z" style="fill:rgb(233,80,59);"/>
    </g>
    <g transform="matrix(1.31496,0,0,1.31496,108.133,295.263)">
        <path d="M-3.15,-5.646C-3.087,-5.843 -3.019,-6.073 -2.973,-6.281C-2.715,-7.44 -2.52,-9.012 -2.368,-10.837C-1.589,-20.167 -1.988,-35.801 -2.27,-38.542C-2.398,-39.795 -1.485,-40.916 -0.233,-41.045C1.02,-41.173 2.141,-40.26 2.27,-39.008C2.602,-35.768 3.094,-15.112 1.742,-6.676C1.444,-4.813 0.998,-3.444 0.542,-2.726C-0.032,-1.82 -0.766,-1.424 -1.436,-1.291C-2.675,-1.048 -3.722,-1.042 -4.699,-1.029C-6.161,-1.009 -7.341,-0.858 -9.284,1.464C-10.092,2.43 -11.532,2.558 -12.498,1.75C-13.464,0.942 -13.592,-0.498 -12.784,-1.464C-9.868,-4.949 -7.819,-5.438 -5.701,-5.562C-4.914,-5.608 -4.099,-5.549 -3.15,-5.646Z" style="fill:rgb(233,80,59);"/>
    </g>
    <g transform="matrix(1.31496,0,0,1.31496,125.396,295.199)">
        <path d="M-0.802,-2.646C-1.905,-2.615 -2.878,-3.382 -3.099,-4.472C-4.511,-11.428 -2.281,-38.682 -2.281,-46.02C-2.281,-47.279 -1.259,-48.301 0,-48.301C1.259,-48.301 2.281,-47.279 2.281,-46.02C2.281,-39.274 0.259,-15.323 1.162,-6.817C1.382,-6.742 1.608,-6.655 1.84,-6.556C3.681,-5.77 6.093,-4.242 7.684,-3.113C8.545,-2.501 9.183,-1.987 9.433,-1.743C9.834,-1.351 9.99,-0.998 10.056,-0.829C10.514,0.344 9.933,1.668 8.76,2.125C7.832,2.488 6.808,2.199 6.196,1.481C5.967,1.311 3.374,-0.601 1.52,-1.626C0.642,-2.112 -0.686,-2.603 -0.802,-2.646Z" style="fill:rgb(233,80,59);"/>
    </g>
    <g transform="matrix(-1.30918,0.123165,0.123165,1.30918,131.836,257.789)">
        <path d="M18.81,-106.315C50.209,-102.788 53.394,-62.732 44.733,-40.233C36.071,-17.735 52.401,2.722 18.81,-8.658C-14.781,-20.038 -23.968,-48.756 -30.514,-79.617C-36.152,-106.197 -11.709,-109.743 18.81,-106.315" style="fill:rgb(34,201,219);fill-rule:nonzero;"/>
    </g>
    <g transform="matrix(1.31496,0,0,1.31496,89.7586,206.341)">
        <path d="M0,15.098C4.116,15.098 7.452,11.718 7.452,7.549C7.452,3.379 4.116,0 0,0C-4.116,0 -7.452,3.379 -7.452,7.549C-7.452,11.718 -4.116,15.098 0,15.098" style="fill:white;fill-rule:nonzero;"/>
    </g>
    <g transform="matrix(1.31496,0,0,1.31496,119.4,206.341)">
        <path d="M0,15.098C4.116,15.098 7.452,11.718 7.452,7.549C7.452,3.379 4.116,0 0,0C-4.116,0 -7.452,3.379 -7.452,7.549C-7.452,11.718 -4.116,15.098 0,15.098" style="fill:white;fill-rule:nonzero;"/>
    </g>
    <g transform="matrix(0.546346,1.19609,1.19609,-0.546346,167.761,197.58)">
        <path d="M16.656,-6.36C16.565,-5.783 16.388,-4.819 16.113,-3.998C15.031,-0.769 12.732,3.645 9.638,7.13C7.708,9.303 5.475,11.128 2.999,11.941C1.803,12.334 1.151,13.625 1.544,14.821C1.937,16.017 3.227,16.669 4.424,16.276C8.051,15.084 11.357,12.314 14.042,8.986C17.912,4.189 20.487,-1.723 21.119,-5.075C21.393,-6.529 21.295,-7.66 21.041,-8.337C20.746,-9.125 20.246,-9.631 19.669,-9.935C-1.732,-21.222 -10.353,-16.46 -10.353,-16.46C-11.476,-15.891 -11.926,-14.517 -11.357,-13.394C-10.788,-12.271 -9.415,-11.82 -8.291,-12.389C-8.291,-12.389 -1.244,-15.579 16.656,-6.36Z" style="fill:rgb(233,80,59);"/>
    </g>
    <g transform="matrix(1,0,0,1,-1272.68,-1484.5)">
        <path d="M1461.96,1680.28L1494.47,1622.8C1495.28,1621.36 1494.78,1619.52 1493.33,1618.71C1491.89,1617.89 1490.06,1618.4 1489.25,1619.84L1456.73,1677.33C1455.92,1678.77 1456.43,1680.6 1457.87,1681.42C1459.31,1682.23 1461.14,1681.72 1461.96,1680.28Z" style="fill:rgb(217,217,217);"/>
    </g>
</svg>
