<?xml version="1.0" encoding="UTF-8" standalone="no"?>
<!DOCTYPE svg PUBLIC "-//W3C//DTD SVG 1.1//EN" "http://www.w3.org/Graphics/SVG/1.1/DTD/svg11.dtd">
<svg width="100%" height="100%" viewBox="0 0 350 350" version="1.1" xmlns="http://www.w3.org/2000/svg" xmlns:xlink="http://www.w3.org/1999/xlink" xml:space="preserve" xmlns:serif="http://www.serif.com/" style="fill-rule:evenodd;clip-rule:evenodd;stroke-linejoin:round;stroke-miterlimit:2;">
    <g transform="matrix(1.75502,0,0,1.75502,249.841,222.526)">
        <path d="M30.868,-18.152C30.544,-18.022 30.084,-17.824 29.708,-17.608C27.441,-16.304 24.195,-13.722 20.704,-10.713C11.759,-3.002 1.295,7.508 1.295,7.508C0.583,8.223 -0.575,8.225 -1.289,7.514C-2.004,6.802 -2.006,5.644 -1.295,4.93C-1.295,4.93 17.605,-14.027 26.54,-19.938C28.442,-21.197 30.018,-21.874 30.99,-21.951C32.05,-22.035 32.799,-21.654 33.299,-21.046C35.991,-17.778 56.413,28.611 56.413,28.611C56.818,29.534 56.397,30.613 55.474,31.018C54.551,31.423 53.472,31.002 53.067,30.079C53.067,30.079 34.662,-11.992 30.868,-18.152Z" style="fill:rgb(233,80,59);"/>
    </g>
    <path d="M332.763,67.843C332.727,67.683 332.708,67.516 332.708,67.344L332.708,57.478C332.708,56.229 333.721,55.215 334.97,55.215C336.219,55.215 337.233,56.229 337.233,57.478L337.233,67.224L346.068,66.596C347.314,66.507 348.397,67.447 348.486,68.692C348.574,69.938 347.635,71.022 346.389,71.11L337.28,71.758L336.828,73.288L347.617,72.714C348.864,72.647 349.93,73.606 349.997,74.853C350.063,76.1 349.104,77.167 347.857,77.233L335.469,77.892L334.95,79.65L343.832,79.125C345.079,79.051 346.151,80.004 346.224,81.25C346.298,82.497 345.346,83.569 344.099,83.643L333.587,84.265L333.559,84.36C333.267,85.349 332.517,86.138 331.543,86.478C331.543,86.478 310.101,94.112 282.069,126.064C266.738,143.539 246.816,144.099 230.691,140.162C214.982,136.325 203.012,128.223 203.012,128.223C201.546,127.232 201.16,125.237 202.15,123.771C203.141,122.305 205.136,121.919 206.602,122.91C206.602,122.91 217.683,130.384 232.212,133.932C246.326,137.379 263.83,137.131 277.249,121.836C302.15,93.451 322.223,83.469 327.848,81.056L331.181,69.772C331.436,68.908 332.023,68.232 332.763,67.843Z" style="fill:rgb(233,80,59);"/>
    <g transform="matrix(1.75502,0,0,1.75502,95.663,265.553)">
        <path d="M0,-146.674C-30.909,-146.501 -42.337,-102.435 -47.511,-68.103C-50.174,-50.43 -42.589,-7.772 -2.99,8.099C34.333,23.058 85.09,29.286 97.287,0.8C114.66,-39.776 84.21,-56.076 57.832,-53.469C70.467,-91.752 73.867,-147.088 0,-146.674" style="fill:rgb(253,203,117);fill-rule:nonzero;"/>
    </g>
    <g transform="matrix(-1.82093,2.4881,1.41626,1.0365,40.0257,279.889)">
        <path d="M-38.571,-44.346L8.62,-17.068C9.165,-16.753 9.462,-15.719 9.282,-14.762C9.103,-13.804 8.515,-13.282 7.97,-13.597L-39.221,-40.875C-39.766,-41.19 -40.063,-42.224 -39.884,-43.182C-39.705,-44.139 -39.116,-44.661 -38.571,-44.346Z" style="fill:rgb(233,80,59);"/>
    </g>
    <g transform="matrix(1.75502,0,0,1.75502,112.189,274.691)">
        <path d="M1.698,6.292C1.698,6.292 8.118,-9.938 14.76,-19.677C16.365,-22.032 17.966,-23.998 19.499,-25.183C20.223,-25.743 20.886,-26.139 21.536,-26.14C21.806,-26.141 22.032,-25.951 22.281,-25.719C22.608,-25.416 22.919,-25.015 23.227,-24.536C24.656,-22.315 25.9,-18.644 27.021,-14.225C31.586,3.755 33.744,33.733 33.744,33.733C33.816,34.738 34.692,35.496 35.698,35.423C36.703,35.351 37.461,34.475 37.388,33.469C37.388,33.469 34.484,-6.316 28.379,-22.224C27.363,-24.873 26.227,-26.905 25.048,-28.122C23.941,-29.264 22.74,-29.796 21.53,-29.794C20.203,-29.792 18.745,-29.219 17.264,-28.074C15.49,-26.703 13.599,-24.46 11.741,-21.736C4.915,-11.726 -1.698,4.946 -1.698,4.946C-2.07,5.884 -1.61,6.946 -0.673,7.317C0.265,7.689 1.327,7.229 1.698,6.292Z" style="fill:rgb(233,80,59);"/>
    </g>
    <g transform="matrix(1.75502,0,0,1.75502,118.705,64.0719)">
        <path d="M0,17.443C4.755,17.443 8.608,13.538 8.608,8.722C8.608,3.905 4.755,0 0,0C-4.755,0 -8.608,3.905 -8.608,8.722C-8.608,13.538 -4.755,17.443 0,17.443" style="fill:white;fill-rule:nonzero;"/>
    </g>
    <g transform="matrix(1.75502,0,0,1.75502,164.411,64.0719)">
        <path d="M0,17.443C4.755,17.443 8.608,13.538 8.608,8.722C8.608,3.905 4.755,0 0,0C-4.755,0 -8.609,3.905 -8.609,8.722C-8.609,13.538 -4.755,17.443 0,17.443" style="fill:white;fill-rule:nonzero;"/>
    </g>
</svg>
