<?xml version="1.0" encoding="utf-8"?>
<!-- Generator: Adobe Illustrator 24.3.0, SVG Export Plug-In . SVG Version: 6.00 Build 0)  -->
<svg version="1.1" id="Calque_1" xmlns:serif="http://www.serif.com/"
	 xmlns="http://www.w3.org/2000/svg" xmlns:xlink="http://www.w3.org/1999/xlink" x="0px" y="0px" viewBox="0 0 612 433.9"
	 style="enable-background:new 0 0 612 433.9;" xml:space="preserve">
<style type="text/css">
	.st0{fill-rule:evenodd;clip-rule:evenodd;fill:#FF9776;}
	.st1{fill:#FFFFFF;}
</style>
<g transform="matrix(1,0,0,1,24.3196,-2701.09)">
	<g id="grosse-patate" serif:id="grosse patate">
		<g transform="matrix(1,0,0,1,74.6563,0)">
			<path class="st0" d="M-92.3,2970.5c7.8-26.5,39.7-45.1,72.1-49.5c109.3-14.9,208.8,0.2,215.6-88.2
				c10.8-141.6,149.7-158.5,240.4-100.4c128.1,129.3,74,322.9,0,354.6c-161.8,69.2-463.1,69.8-521.1-38.7c-2.5-4.7-4.8-9.3-7-13.8
				C-99.6,3016.9-102.7,2997.2-92.3,2970.5z"/>
		</g>
		<g transform="matrix(5.73053,0,0,5.73053,1319.79,2873.17)">
			<path class="st1" d="M-170-17.6c1.1,0,2-0.9,2-2.1c0-1.1-0.9-2.1-2-2.1s-2,0.9-2,2.1C-172.1-18.5-171.2-17.6-170-17.6"/>
		</g>
		<g transform="matrix(5.73053,0,0,5.73053,1448.96,2873.17)">
			<path class="st1" d="M-186.4-17.6c1.1,0,2-0.9,2-2.1c0-1.1-0.9-2.1-2-2.1c-1.1,0-2,0.9-2,2.1C-188.4-18.5-187.5-17.6-186.4-17.6"
				/>
		</g>
	</g>
</g>
</svg>
